<svg xmlns="http://www.w3.org/2000/svg" viewBox="0 0 500 500"><defs><clipPath id="a"><path d="M347.7 388.5v-44.2c.6-1.8 1-8.4 2-13 1.7-7.6-5.1-16.8-5.6-17.1-2-1.2-6-1.2-6-1.2s-4-4.6-7.6-6a17.9 17.9 0 0 0-7.6-1 36.6 36.6 0 0 0-9.1-5.5 7.5 7.5 0 0 0-7.7 1.4l-4.5 7a5.2 5.2 0 0 0 .6 6.5c2.2 2.2 5 1.2 6.3 1.2 2 0 2.6-2.2 2.6-2.2s.5 11.3 0 12.7c-.5 1.4-4 4.8-4 4.8L295 316a114.5 114.5 0 0 1-10.8-17.7 8.5 8.5 0 0 0-1.4-2.1c-2-2.4-6.5-3.1-7.7 1.3a8.7 8.7 0 0 0 .2 4.2c5 14.8 11.4 26 17.2 37.6 3.4 7 2.1 6.9 3.9 10-.2.1-.1.4-.4.5l-2.2 10a46 46 0 0 0-3.9-12 27.5 27.5 0 0 0 .6-7.2 9.4 9.4 0 0 0-3-6.3 6.2 6.2 0 0 0-3.5-1.4 3.6 3.6 0 0 0-3.9 3.1 37.5 37.5 0 0 1-1 5.4 54.5 54.5 0 0 1-2.7 6.9c0 4.4 2.7 3.7 4.7 21.6 1.6 14 19.6 23.2 29.4 33.3l10.4 32.9a202.3 202.3 0 0 0 35-18.3Z" style="fill:#fff"/></clipPath><clipPath id="b"><path d="M237.2 336.4c-.4-2-3.2-1.7-3.2-1.7-9.5.6-10.8 15.4-10.8 15.4l-3.4 10.1-1-15.2.1-19.7s3-18.8 1.6-21.8a4.3 4.3 0 0 0-3.9-2.8c-5.5-1.4-5.8 6.5-5.8 6.5l-4.6 16.2-2 17.5-1.5-.9s-.8-18.5-.4-18.8 2.2-12.8 2.2-12.8l2.3-5.3a6.4 6.4 0 0 0 0-5.3c-2.2-4.5-6.9-2.4-7.8 0a70.4 70.4 0 0 1-3.8 7.2l-5.3 14.5c.2 3.3-1.7 19.5-1.7 19.5l-2-1-3-9.4 2.3-9.7s5.1-5.6 4.3-9-5.2-2.2-5.2-2.2l-8.7 10.3h-2.6l-6 7.6A48.3 48.3 0 0 0 166 351l1.4 6.4V399s-4 6.7-4 7.3c0 .3-1.8 5.5-4.2 12a203.6 203.6 0 0 0 25.7 13.4l9 3.4c3.8-10.7 8.2-22.1 10.7-24.8l14.3-15.4s10.8-17.4 12.1-23.2c1-4.7 3.6-13.3 4.5-16.3a5.8 5.8 0 0 0 .2-2l-.2-7.3c0-3.8 2.2-7.6 1.8-9.6Z" style="fill:#fff"/></clipPath><clipPath id="c"><path d="M450 317.1a71.8 71.8 0 0 1-1 11.9c-2.9 17.3-12 30-22.8 30a13.7 13.7 0 0 1-2.8-.4c-11.8-2.5-20.9-20.1-20.9-41.5 0-23 10.6-31.2 23.7-31.2S450 294 450 317Z" style="fill:#fff;stroke:#263238;stroke-miterlimit:10"/></clipPath></defs><path d="M481.7 245.8a119.6 119.6 0 0 1-3.3 28.5c-.8 3-1.7 6.1-2.7 9.1l-1 2.6-.7 2-.2.6-1 2.2v.3l-1 2.1-.4 1-.9 1.8-1 2-.3.6-.8 1.6-.7 1.3q-1.6 3-3.4 5.8a112.3 112.3 0 0 1-1.8 3l-1.7 2.6-1.4 2-1.3 2-.2.3-1.4 2-1.7 2.3-.3.5-2 2.6-1.3 1.6a144.2 144.2 0 0 1-4.3 5.5l-.3.3-2.1 2.6-.7.8-2 2.4-6 7q-6 7-12.3 13.8L412.8 370a335.4 335.4 0 0 1-64.6 52.7l-2.8 1.6-.5.3-3 1.7-3 1.6-1.3.7-6 3-3.3 1.5-3 1.4-1.3.5-2.8 1.2-5.5 2-2.1.8-1.2.4-2 .7-1.7.5-3.5 1a171.2 171.2 0 0 1-12.3 3.1h-.3l-3.6.7-1.8.3-1.8.3-1.7.3-2 .2a154.5 154.5 0 0 1-21.4 1.3h-1.2a176.8 176.8 0 0 1-19.4-1.5l-1.4-.2-2.4-.3-2-.3a189.3 189.3 0 0 1-18.6-3.9l-1.7-.4-1.8-.5-7-2-8-2.6-3-1c-3-1-6-2.2-9-3.4l-1.6-.7-1.3-.5-1-.4-6.2-3-1.2-.7a250.5 250.5 0 0 1-14.3-8c-40-23.5-101.3-67.7-115.7-84.5a133.5 133.5 0 0 1-3.8-4.6l-1.4-2-1.2-1.6-1.2-1.7-1.4-2a35 35 0 0 1-1.2-2l-.6-1-1.3-2.2-1.4-2.5-2.2-4.4-.6-1.2a91.5 91.5 0 0 1-3.7-9.2 80.2 80.2 0 0 1-2.3-7.7c0-.3 0-.5-.2-.8a57.3 57.3 0 0 1-1-5.5l-.2-.8-.2-1.6-.3-2v-.7l-.2-1.7a.6.6 0 0 0 0-.1v-2a1.3 1.3 0 0 1 0-.2L19 274v-5l.2-2a66.1 66.1 0 0 1 .8-6l1-4.1a69.7 69.7 0 0 1 3.4-10.3 72.2 72.2 0 0 1 3.5-7.3l.4-.6A111.7 111.7 0 0 1 52 210.6l2.8-2.6.2-.2 4.7-4 7.5-6 .2-.2 6.5-5 10.2-8 2.6-2 2.9-2.3a213.7 213.7 0 0 0 23.8-22.6l4.2-4.6 2-2.2c9-10.4 17.5-21 27-30.9l7-7 6-5.6A142.1 142.1 0 0 1 178.2 93l3-1.9c99.7-62 173.1-41.7 222 0Q409 96 414 101l6 6.2.6.7 4 4.4 1.2 1.3 1.7 2 2 2.5 1.3 1.5a228.3 228.3 0 0 1 18.8 26.8l1.3 2 1.2 2 1.2 2.1 1.2 2 1.1 2 1.1 2 1.1 2 1 2 1 2 1 2 3.8 7.9 1.7 3.9c2.5 5.7 4.6 11.2 6.4 16.2a.2.2 0 0 1 0 .1l.5 1.5.5 1.4.3 1.2.6 1.7.5 1.8 1 3.4.7 2.8.2.6v.4a83.5 83.5 0 0 1 1.5 6.2l.5 2.4v.5l.5 2.3.5 3.1.4 2.4v.3l.2 1.6.2 1.3.4 4.8.1 1 .1 1.9.2 2v3.8l.1 2.8Z" style="fill:#75c2f6"/><g style="opacity:.7000000000000001"><path d="M481.7 245.8a119.6 119.6 0 0 1-3.3 28.5c-.8 3-1.7 6.1-2.7 9.1l-1 2.6-.7 2-.2.6-1 2.2v.3l-1 2.1-.4 1-.9 1.8-1 2-.3.6-.8 1.6-.7 1.3q-1.6 3-3.4 5.8a112.3 112.3 0 0 1-1.8 3l-1.7 2.6-1.4 2-1.3 2-.2.3-1.4 2-1.7 2.3-.3.5-2 2.6-1.3 1.6a144.2 144.2 0 0 1-4.3 5.5l-.3.3-2.1 2.6-.7.8-2 2.4-6 7q-6 7-12.3 13.8L412.8 370a335.4 335.4 0 0 1-64.6 52.7l-2.8 1.6-.5.3-3 1.7-3 1.6-1.3.7-6 3-3.3 1.5-3 1.4-1.3.5-2.8 1.2-5.5 2-2.1.8-1.2.4-2 .7-1.7.5-3.5 1a171.2 171.2 0 0 1-12.3 3.1h-.3l-3.6.7-1.8.3-1.8.3-1.7.3-2 .2a154.5 154.5 0 0 1-21.4 1.3h-1.2a176.8 176.8 0 0 1-19.4-1.5l-1.4-.2-2.4-.3-2-.3a189.3 189.3 0 0 1-18.6-3.9l-1.7-.4-1.8-.5-7-2-8-2.6-3-1c-3-1-6-2.2-9-3.4l-1.6-.7-1.3-.5-1-.4-6.2-3-1.2-.7a250.5 250.5 0 0 1-14.3-8c-40-23.5-101.3-67.7-115.7-84.5a133.5 133.5 0 0 1-3.8-4.6l-1.4-2-1.2-1.6-1.2-1.7-1.4-2a35 35 0 0 1-1.2-2l-.6-1-1.3-2.2-1.4-2.5-2.2-4.4-.6-1.2a91.5 91.5 0 0 1-3.7-9.2 80.2 80.2 0 0 1-2.3-7.7c0-.3 0-.5-.2-.8a57.3 57.3 0 0 1-1-5.5l-.2-.8-.2-1.6-.3-2v-.7l-.2-1.7a.6.6 0 0 0 0-.1v-2a1.3 1.3 0 0 1 0-.2L19 274V269l.2-2a66.1 66.1 0 0 1 .8-6l1-4a69.7 69.7 0 0 1 3.4-10.3 72.2 72.2 0 0 1 3.5-7.4l.4-.6c5.4-9.5 12.7-17.9 21-25.7l1.4-1.3 1.3-1.2 2.8-2.5.2-.2 4.7-4 7.5-6 .2-.3 6.5-5 3.3-2.6 6.9-5.3 2.6-2 2.9-2.3a213.7 213.7 0 0 0 23.8-22.7l4.2-4.6 2-2.2c9-10.4 17.5-20.9 27-30.8q3.4-3.6 7-7l6-5.7A142.1 142.1 0 0 1 178.2 93l3-1.8c99.7-62 173.1-41.7 222 0Q409 96 414 101l6 6.2.6.7 4 4.4 1.2 1.3 1.7 2 2 2.5 1.3 1.5a228.3 228.3 0 0 1 18.8 26.8l1.3 2 1.2 2 1.2 2.1 1.2 2 1.1 2 1.1 2 1.1 2 1 2 1 2 1 2 3.8 7.9 1.7 3.9c2.5 5.7 4.6 11.2 6.4 16.2a.2.2 0 0 1 0 .1l.5 1.5.5 1.4.3 1.2.6 1.7.5 1.8 1 3.4.7 2.8.2.6v.4a83.5 83.5 0 0 1 1.5 6.2l.5 2.4v.5l.5 2.3.5 3.1.4 2.4v.3l.2 1.6.2 1.3.4 4.8.1 1 .1 1.9.2 2v3.8l.1 2.8Z" style="fill:#fff"/></g><path d="M32.1 262.3c-.2-.2-.1-.3 0 0Z" style="fill:#263238;opacity:.2"/><path d="M125.7 253.4A18.3 18.3 0 0 1 113 268l-2.5.8c-8.9 12.7-24.5 18-37.9 10.2l-3.9-2.3-10.9-13h-.1c-3.5.7-7.4.2-10-2.2a3.4 3.4 0 1 1-5.5-3.3c-2.2 2-5.6 1-7.7-1a66.7 66.7 0 0 1 2-17.3 69.7 69.7 0 0 1 3.4-10.2 72.2 72.2 0 0 1 3.6-7.4l.3-.6a87.9 87.9 0 0 1 6.7-10l1.2-1.1 3-2.6.1-.2 4.7-4 7.5-6 .2-.2 6.5-5.1 3.3-2.5a9 9 0 0 1 1.9.4c2.6 1 3.1 3.4 5 5 2.4 2.3 4.8-1.4 8.6-1.3 11.6.3 7.1 12.3 12.8 10.8 24.6-6.5 20.4 25 9.8 31.8 6.3 5.2 11.7 8.7 10.5 16.8Z" style="opacity:.2"/><ellipse cx="72.8" cy="242.4" rx="41.4" ry="40.9" style="fill:#fff;stroke:#263238;stroke-miterlimit:10"/><ellipse cx="72.8" cy="240.7" rx="37.8" ry="37.3" style="fill:#263238;stroke:#fff;stroke-miterlimit:10"/><path d="M32.2 255.4c-2.3 1.5-3 6.5-1.2 8.6s5.5.5 6.2-2.8a1.1 1.1 0 0 0 2 .3 2.3 2.3 0 0 0 .2-2.1c-.2-.2-.1-.3 0 0 1.2 1 3.3-.1 3.6-2.2-.9 5.5 4.1 10.3 7.8 7.5-1.1 2.3.3 5.4 2.2 6s4-.5 5.8-1.8 3.7-2.6 5.7-2.7c1.7-.1 3.3.9 5 1.4 5.2 1.9 11.4-.6 15.4-6 2.7 4.5 9.2 2.8 11-2.9.4 2.7 2.2 4.7 4.2 4.7s4-1.9 4.8-4.5c0 2.5 2.2 3.7 3.8 2.1a9.4 9.4 0 0 0 2.4-8.9c2.7 0 5.3-3.2 5.7-6.9s-1.4-7.3-4-8c4.5-2 8-8 8.2-14.4s-3-12-7.5-13.5a4.7 4.7 0 0 0-5 1c-.6-3.5-2.2-6.7-4.6-8.3-3.8-2.6-9.1-.8-12 4a9.4 9.4 0 0 0 .3-8.4c-1.3-2.3-3.8-3.3-5.9-2.2-.5-3.8-3.4-6.5-6.3-5.8s-5.2 4.9-5 8.7c-.3-3-4-3.8-5.3-1.2.1.2 0 0 0 0-1.8-3.9-5.6-5.9-9-4.7-3.7 1.2-6.8 5.8-7.3 10.9a6.5 6.5 0 0 0-9 .2 14 14 0 0 0-3.8 11.3c-2.9-2.8-7.7-1.2-9.7 3.1s-.6 10.6 2.7 12.5c-2.3.3-4.3 3.3-4.3 6.4s2 5.7 4.3 5.7c-2.3.2-4.5 3-4.8 6s1.2 6.3 3.4 7Z" style="fill:#75c2f6"/><g style="opacity:.2"><path d="M70.3 241.1a4.3 4.3 0 0 0-4-1 4.8 4.8 0 0 0-3 3.7c-.3 1.8.6 3.8 2 4.2 1.6.4 3.4-1.5 5-1.3a11.1 11.1 0 0 1 1.8.6c2.5.7 5-1.5 7.1-3.6a9.8 9.8 0 0 0 2-2.5 4 4 0 0 0 .3-3.3c-.6-1.4-2.1-1.5-3.4-1.2a13.4 13.4 0 0 0-7 4.1l.2-1.5ZM106.5 236.2a5.7 5.7 0 0 0-2.2-1.4 2 2 0 0 0-2.2 1 3.3 3.3 0 0 0 .5 3.8 5.2 5.2 0 0 0 3.1 1.2c1.2.1 2.6.1 3.2-1.2a2.9 2.9 0 0 0-.5-3 5 5 0 0 0-2.2-1.2ZM50 215.7a11 11 0 0 0-4.8 7.4c-.2.9-.2 2 .4 2.5a1.7 1.7 0 0 0 1.6 0l6.6-2.4a10 10 0 0 0-3 2.2 5 5 0 0 0-1.2 4 2.9 2.9 0 0 0 3 2.4 6.4 6.4 0 0 0 3.7-2 6.8 6.8 0 0 0 2.4-4.5c0-1.8-1.7-3.4-2.8-2.2a24.5 24.5 0 0 0 7.1-4.6 8.6 8.6 0 0 0 2-2.6 4.3 4.3 0 0 0 .4-3.4c-2.2-5-5.2 2.8-6.6 3.5-2.6 1.5-5.5-2.2-8.9-.3ZM39.2 238.7a3.2 3.2 0 0 0 .6 2.9 1.3 1.3 0 0 0 2-.7 8.1 8.1 0 0 0-4 3c-1 1.7-.7 4.5.8 5 .9.3 1.9-.3 2.7-1a56.8 56.8 0 0 0 7-6.1 3.2 3.2 0 0 0 2.4 4.1c1.7.1 3.2-1.1 4.7-2.3 1.7-1.4 3.7-3.6 3.3-6a3 3 0 0 0-4.2-2.3c-1.7.7-3 2.5-4.2 4.3 1-1.8-.3-4.3-2-4.5s-3.1 1.2-4.1 2.7c1.8-1.4 2.3-4.8-.1-5-1.7-.2-4.5 4.2-4.9 5.9ZM89.8 228c-1.4-.5-3.2.8-3.6 2.6s.7 3.9 2.1 4a4.4 4.4 0 0 0-2.8 2 3.6 3.6 0 0 0-.7 2.2 2 2 0 0 0 2 1.8 5.4 5.4 0 0 0 2.6-1 4.4 4.4 0 0 0-2.6 1 2.6 2.6 0 0 0-.4 3c.5.7 1.4.5 2.1.2a11.3 11.3 0 0 0 4.4-3.4 3.5 3.5 0 0 0 3.6 1.8 3.5 3.5 0 0 0 2.1-4 2.5 2.5 0 0 0-2.2-1.9 5.8 5.8 0 0 0-2.9.8 7.4 7.4 0 0 0 2.4-3.4c.4-1.5-.3-3.3-1.5-3.1-1.3.2-2 2.5-3 3.4-1.3-1.4 1.1-4.8-1.6-6ZM66.4 222.6c-1.5 1.4-2.1 4-2 6.2 0 2.5.9 5.2 2.7 6 2.3 1.2 5.4-1.5 5.9-4.8a8 8 0 0 0-3.5-7.9 2.9 2.9 0 0 0-3.1.5ZM83 218.9l.7.6a2.6 2.6 0 0 0-4.4-.2 4.8 4.8 0 0 0 0 5.6 2.7 2.7 0 0 0 4.3-.7 4 4 0 0 0 5.2-1.5c1.3-2 1-5.2-.6-6.3s-4.2.9-4 3.3l-.7-1ZM101.4 221.5a13.7 13.7 0 0 0-3 5.3c-.4 2 .3 4.6 1.9 5s3-1.4 4-3.2a8 8 0 0 0 1.1-5.4c-.4-1.7-2.4-2.7-3.5-1.2ZM75.1 210.8a2.3 2.3 0 0 0-3.7-1 5.1 5.1 0 0 0-1.3 5 4 4 0 0 0 3.4 2.9 3.7 3.7 0 0 0 3.6-4.1 3.2 3.2 0 0 0 3.4 1.4 9 9 0 0 0 3.7-2c1.5-1.1 3.1-3 3-5.2a3.2 3.2 0 0 0-2.8-3 5.1 5.1 0 0 0-3.8 2l-2.5 3c-1 1-2.2 1.3-3.1.7Z" style="fill:#fff"/></g><path d="M145.7 272.8h230.7V370H145.7z" style="fill:#75c2f6;stroke:#263238;stroke-linecap:round;stroke-linejoin:round"/><path d="M150.5 278.6h21.7v12h-21.7zM336.8 337.2H371v12h-34.2zM349.9 293.6H371v12h-21.1zM150.5 322.4h21.7v12h-21.7zM150.5 307.9h17.6v12h-17.6zM150.5 293.3h12v12h-12zM165.8 293.3h12v12h-12zM181.2 293.3h12v12h-12zM196.5 293.3h12v12h-12zM211.8 293.3h12v12h-12zM227.2 293.3h12v12h-12zM242.5 293.3h12v12h-12zM257.8 293.3h12v12h-12zM273.2 293.3h12v12h-12zM288.5 293.3h12v12h-12zM303.8 293.3h12v12h-12zM319.2 293.3h12v12h-12zM334.5 293.3h12v12h-12zM150.5 352h12v12h-12zM165.8 352h12v12h-12zM181.2 352h12v12h-12zM196.5 352h14.7v12h-14.7zM214.5 352h73.3v12h-73.3zM312.5 352h12v12h-12zM327.8 352h12v12h-12zM343.2 352h12v12h-12zM290.8 352h18.6v12h-18.6zM359 352h12v12h-12zM171.5 307.9h12v12h-12zM186.8 307.9h12v12h-12zM202.2 307.9h12v12h-12zM217.5 307.9h12v12h-12zM232.8 307.9h12v12h-12zM248.2 307.9h12v12h-12zM263.5 307.9h12v12h-12zM278.8 307.9h12v12h-12zM294.1 307.9h12v12h-12zM309.5 307.9h12v12h-12zM324.8 307.9h12v12h-12zM340.1 307.9h12v12h-12zM371 307.9v26.7h-12v-14.7h-3.5v-12H371zM175 322.6h12v12h-12zM190.3 322.6h12v12h-12zM205.7 322.6h12v12h-12zM221 322.6h12v12h-12zM236.3 322.6h12v12h-12zM251.7 322.6h12v12h-12zM267 322.6h12v12h-12zM282.3 322.6h12v12h-12zM297.7 322.6h12v12h-12zM313 322.6h12v12h-12zM328.3 322.6h12v12h-12zM343.7 322.6h12v12h-12zM168.5 337.2h12v12h-12zM183.8 337.2h12v12h-12zM199.2 337.2h12v12h-12zM214.5 337.2h12v12h-12zM229.8 337.2h12v12h-12zM245.2 337.2h12v12h-12zM260.5 337.2h12v12h-12zM275.8 337.2h12v12h-12zM291.1 337.2h12v12h-12zM306.5 337.2h12v12h-12zM321.8 337.2h12v12h-12zM175 279.4h12v12h-12zM190.3 279.4h12v12h-12zM205.7 279.4h12v12h-12zM221 279.4h12v12h-12zM236.3 279.4h12v12h-12zM251.7 279.4h12v12h-12zM267 279.4h12v12h-12zM282.3 279.4h12v12h-12zM297.7 279.4h12v12h-12zM313 279.4h12v12h-12zM328.3 279.4h12v12h-12zM343.7 279.4h12v12h-12zM359 279.4h12v12h-12zM150.5 337.2h14.6v12h-14.6z" style="fill:#fff;stroke:#263238;stroke-miterlimit:10"/><path d="m145.7 273.4 4.8-1.6h222.7l3.2 1.6H145.7z" style="fill:#263238"/><path d="m310.3 440-4.7-28.3a23 23 0 0 0-6.3-11c-9.3-9-21.7-18.2-22.2-30-.8-18-3.6-17.5-3.3-22a54 54 0 0 0 3.2-6.5 38.5 38.5 0 0 0 1.3-5.4 3.6 3.6 0 0 1 4-2.8 6.2 6.2 0 0 1 3.4 1.5 9.4 9.4 0 0 1 2.6 6.5 27.8 27.8 0 0 1-1 7.1 46.2 46.2 0 0 1 3 12.4l3-9.9c.1-.1 0-.4.3-.5-1.5-3.2-.3-3-3.2-10.2-5-12-10.7-23.6-14.7-38.6a8.6 8.6 0 0 1 .1-4.3c1.4-4.3 5.9-3.3 7.8-.8a8.3 8.3 0 0 1 1.2 2.2 116.5 116.5 0 0 0 9.6 18.4l10.9 16.6s3.8-3 4.4-4.5c.5-1.4.8-12.6.8-12.6s-.9 2-2.8 2c-1.3-.1-4.1.7-6.1-1.6a5.2 5.2 0 0 1-.2-6.5l5-6.7a7.5 7.5 0 0 1 7.7-.9 36.8 36.8 0 0 1 8.7 6.1 17.8 17.8 0 0 1 7.5 1.5c3.5 1.6 7.2 6.5 7.2 6.5s4 .2 5.9 1.5c.5.4 6.7 10 4.4 17.6-1.3 4.5-2.1 11-2.7 12.7l-3 44.1 6 29-13 7.3a94 94 0 0 1-15.1 6.8Z" style="opacity:.2"/><path d="M347.7 388.5v-44.2c.6-1.8 1-8.4 2-13 1.7-7.6-5.1-16.8-5.6-17.1-2-1.2-6-1.2-6-1.2s-4-4.6-7.6-6a17.9 17.9 0 0 0-7.6-1 36.6 36.6 0 0 0-9.1-5.5 7.5 7.5 0 0 0-7.7 1.4l-4.5 7a5.2 5.2 0 0 0 .6 6.5c2.2 2.2 5 1.2 6.3 1.2 2 0 2.6-2.2 2.6-2.2s.5 11.3 0 12.7c-.5 1.4-4 4.8-4 4.8L295 316a114.5 114.5 0 0 1-10.8-17.7 8.5 8.5 0 0 0-1.4-2.1c-2-2.4-6.5-3.1-7.7 1.3a8.7 8.7 0 0 0 .2 4.2c5 14.8 11.4 26 17.2 37.6 3.4 7 2.1 6.9 3.9 10-.2.1-.1.4-.4.5l-2.2 10a46 46 0 0 0-3.9-12 27.5 27.5 0 0 0 .6-7.2 9.4 9.4 0 0 0-3-6.3 6.2 6.2 0 0 0-3.5-1.4 3.6 3.6 0 0 0-3.9 3.1 37.5 37.5 0 0 1-1 5.4 54.5 54.5 0 0 1-2.7 6.9c0 4.4 2.7 3.7 4.7 21.6 1.6 14 19.6 23.2 29.4 33.3l10.4 32.9a202.3 202.3 0 0 0 35-18.3Z" style="fill:#fff"/><g style="clip-path:url(#a)"><path d="M342.6 328.4a7.7 7.7 0 0 1 2.2-3.4 3 3 0 0 1 3.9 0l-2.4-6.7a10.6 10.6 0 0 0-2.8-4.7c-1.4-1.2-3.7-1.4-5 0a54 54 0 0 1 .3 15.8c-.4 2.8-.9 6 1 8.2.6.4 1.5-.3 1.2-1-.2-.2-.8-.2-1-.2a50.8 50.8 0 0 1 2.6-8Z" style="fill:#75c2f6"/><path d="M342.6 328.4a7.7 7.7 0 0 1 2.2-3.4 3 3 0 0 1 3.9 0l-2.4-6.7a10.6 10.6 0 0 0-2.8-4.7c-1.4-1.2-3.7-1.4-5 0a54 54 0 0 1 .3 15.8c-.4 2.8-.9 6 1 8.2.6.4 1.5-.3 1.2-1-.2-.2-.8-.2-1-.2a50.8 50.8 0 0 1 2.6-8Z" style="fill:#75c2f6"/><path d="M342.6 328.4a7.7 7.7 0 0 1 2.2-3.4 3 3 0 0 1 3.9 0l-2.4-6.7a10.6 10.6 0 0 0-2.8-4.7c-1.4-1.2-3.7-1.4-5 0a54 54 0 0 1 .3 15.8c-.4 2.8-.9 6 1 8.2.6.4 1.5-.3 1.2-1-.2-.2-.8-.2-1-.2a50.8 50.8 0 0 1 2.6-8Z" style="fill:#fff;opacity:.5"/><path d="M326.6 323.7a28.3 28.3 0 0 0 .5 5.7 7.1 7.1 0 0 0 3.2 4.6c-1-3.7-.4-7.6.1-11.5l1-7a5.2 5.2 0 0 1 .7-2.3 1.8 1.8 0 0 1 2.1-.7c-1 .5-2.2-.2-2.8-1.2a29.4 29.4 0 0 0-1.6-3.1c-1.3-1.7-4.2-2.1-6.2-1.6.6 5.7 2.8 11.2 3 17Z" style="fill:#75c2f6"/><path d="M326.6 323.7a28.3 28.3 0 0 0 .5 5.7 7.1 7.1 0 0 0 3.2 4.6c-1-3.7-.4-7.6.1-11.5l1-7a5.2 5.2 0 0 1 .7-2.3 1.8 1.8 0 0 1 2.1-.7c-1 .5-2.2-.2-2.8-1.2a29.4 29.4 0 0 0-1.6-3.1c-1.3-1.7-4.2-2.1-6.2-1.6.6 5.7 2.8 11.2 3 17Z" style="fill:#75c2f6"/><g style="opacity:.5"><path d="M326.6 323.7a28.3 28.3 0 0 0 .5 5.7 7.1 7.1 0 0 0 3.2 4.6c-1-3.7-.4-7.6.1-11.5l1-7a5.2 5.2 0 0 1 .7-2.3 1.8 1.8 0 0 1 2.1-.7c-1 .5-2.2-.2-2.8-1.2a29.4 29.4 0 0 0-1.6-3.1c-1.3-1.7-4.2-2.1-6.2-1.6.6 5.7 2.8 11.2 3 17Z" style="fill:#fff"/></g><path d="M310.3 308.3a3.5 3.5 0 0 1-1-2.2 3 3 0 0 0-1.3-2c-3 2-1.4 7.7-4.5 9.6-.6.4-1.3.6-1.7 1.2a1.6 1.6 0 0 0 .4 1.8 3 3 0 0 0 1.7.8 6.8 6.8 0 0 0 6.5-2.9c1.2-1.7 2-4.4 1.5-6.4a1.5 1.5 0 0 1-1.6 0ZM278.3 345.6l.1.7c.1.2.6-.2.8-.4a5.3 5.3 0 0 1 6-2c.8 0 1-1.2.5-1.8a2.9 2.9 0 0 0-2.2-.8 4.4 4.4 0 0 1-2.4-.3 2.3 2.3 0 0 1-1-2.6c-.5 2.5-1.1 4.8-1.8 7.2Z" style="fill:#75c2f6"/><g style="opacity:.5"><path d="M310.3 308.3a3.5 3.5 0 0 1-1-2.2 3 3 0 0 0-1.3-2c-3 2-1.4 7.7-4.5 9.6-.6.4-1.3.6-1.7 1.2a1.6 1.6 0 0 0 .4 1.8 3 3 0 0 0 1.7.8 6.8 6.8 0 0 0 6.5-2.9c1.2-1.7 2-4.4 1.5-6.4a1.5 1.5 0 0 1-1.6 0ZM278.3 345.6l.1.7c.1.2.6-.2.8-.4a5.3 5.3 0 0 1 6-2c.8 0 1-1.2.5-1.8a2.9 2.9 0 0 0-2.2-.8 4.4 4.4 0 0 1-2.4-.3 2.3 2.3 0 0 1-1-2.6c-.5 2.5-1.1 4.8-1.8 7.2Z" style="fill:#fff"/></g><path d="M319 307.5c-1.7-.2-3.5-.3-5-1.2-2-1.1-3.3-3.5-5.5-3.6-2 0-3.4 1.7-4.5 3.3a6 6 0 0 1 4-5.6 9.8 9.8 0 0 1 7 .3 26.8 26.8 0 0 1 6.3 3.9 8.3 8.3 0 0 1 2 2c2.5 3.9-2.7 1.1-4.2.9Z" style="fill:#75c2f6"/><path d="M319 307.5c-1.7-.2-3.5-.3-5-1.2-2-1.1-3.3-3.5-5.5-3.6-2 0-3.4 1.7-4.5 3.3a6 6 0 0 1 4-5.6 9.8 9.8 0 0 1 7 .3 26.8 26.8 0 0 1 6.3 3.9 8.3 8.3 0 0 1 2 2c2.5 3.9-2.7 1.1-4.2.9Z" style="fill:#fff;opacity:.5"/><path d="M287.8 364.3a6.9 6.9 0 0 0 .3-.7.8.8 0 0 0-.3.7ZM290.8 348.8c-.3-2.5.1-5 0-7.4s-.8-5-2.5-6.8c-2.6-2.4-9.7-1.2-7.3 3.4a3 3 0 0 0 3.6 1.4 2.7 2.7 0 0 0 1.3-3.6 12.8 12.8 0 0 1-.6 14.6 11.6 11.6 0 0 1 2.8 13.2 1.5 1.5 0 0 1 1.6 0 5 5 0 0 1 1.3 2.3c.4.8 1 1.6 1.9 1.6 1.2-3 .8-6.3 0-9.4s-1.9-6.1-2.1-9.3ZM316.6 302.4a10 10 0 0 0-4.7-2ZM328.4 333.7c-.4-1.7-1.2-3.3-1.7-5-1-3.9-.4-8-.9-12.1a21 21 0 0 0-7.4-13.5l-1.8-.7a10 10 0 0 1 3.6 5.2c1.4 4.8 1.8 9.8 2.5 14.7a197.1 197.1 0 0 0 4.1 22.7 22 22 0 0 0 1.6-11.3ZM309.3 316a6.3 6.3 0 0 0 2.1-4.2 17 17 0 0 0 0-4.2 1.4 1.4 0 0 1-1.6 1 3.5 3.5 0 0 1-2-1.8l-.3 1.3-.1-.7-.5.6c.7 2 1.4 4.3.3 6.2a7.2 7.2 0 0 1-2.3 2 3.8 3.8 0 0 0 4.4-.3Z" style="fill:#75c2f6"/><path d="M311.3 307.1v.5a.8.8 0 0 0 0-.5ZM306 327.3c-3.4-6.9-7-13.7-10.8-20.4a66.3 66.3 0 0 0-7.7-11.2c-1.3-1.5-5.1-5-7.2-2.7-1.4 1.5.4 4.3-1.3 6 .4 0 2.3-.2 2.5 0a30.4 30.4 0 0 1 6.8 19.4c1.4-1.1 3.3.4 4.4 1.9a326.4 326.4 0 0 1 19 27c-1.1-4-1.2-8.5-2.4-12.6a45 45 0 0 0-3.3-7.4ZM346.8 344.1a43.8 43.8 0 0 0 3.1-13.8 22.6 22.6 0 0 0-3.1-12.5c-.6-1-3-4.8-4.3-4.5-2.4.6.7 4.6 1.3 5.7 2 3.8 4 7.9 4 12.2-.1 3.4-1.6 6.5-2.7 9.7a20.8 20.8 0 0 0-1.4 6.8l-.5.8a10.3 10.3 0 0 1-6.3 4.2l3-9c.3-1.1.4-2.6-.2-3.3a2.8 2.8 0 0 0 .3-1.3 6.6 6.6 0 0 0-.9-2.3c-1.3-2.9-.9-6.2-.5-9.4.4-3.9.5-8-.6-11.7s-3.8-7.2-7.5-8.4l1 1-1.3-1 2.3 5-.8 1.2c1.3-.7 3 .3 3.5 1.6a8.6 8.6 0 0 1 .3 4.3 86.2 86.2 0 0 0 1.2 24.3 11.8 11.8 0 0 1-1.5 5.3 5.3 5.3 0 0 1-5 2.7 5.3 5.3 0 0 0-1.9-5.3c-2 2.8-.8 7.1-.5 10.3a112.5 112.5 0 0 0 2.3 14.4 46.4 46.4 0 0 1 2.6-12l3.2 11.8a7 7 0 0 1 .7-3.2 2.4 2.4 0 0 1 2.7-1.3 3.4 3.4 0 0 1 1.7 2 36.8 36.8 0 0 1 2 21.7c1.3.7 3-.2 3.8-1.5a9 9 0 0 0 .7-4.5l-.7-40ZM312.9 348.4c-.6 1 2 5.5 2.4 6.6l6.6 16.1a76.5 76.5 0 0 0-5.1-20.6c-.5-1.1-2.6-4.4-4-2.1ZM316.3 319.8c-.4.6-.9 1.3-1.6 1.1s-.7-1-.7-1.6l.2-11.3c-3 2.2-2.6 5-2.8 8.3-.1 1.9.4 10.8-.9 11.9a33.3 33.3 0 0 0 7.5-9c-.6-.5-1.3 0-1.7.6Z" style="fill:#75c2f6"/><g style="opacity:.5"><path d="M287.8 364.3a6.9 6.9 0 0 0 .3-.7.8.8 0 0 0-.3.7ZM290.8 348.8c-.3-2.5.1-5 0-7.4s-.8-5-2.5-6.8c-2.6-2.4-9.7-1.2-7.3 3.4a3 3 0 0 0 3.6 1.4 2.7 2.7 0 0 0 1.3-3.6 12.8 12.8 0 0 1-.6 14.6 11.6 11.6 0 0 1 2.8 13.2 1.5 1.5 0 0 1 1.6 0 5 5 0 0 1 1.3 2.3c.4.8 1 1.6 1.9 1.6 1.2-3 .8-6.3 0-9.4s-1.9-6.1-2.1-9.3ZM316.6 302.4a10 10 0 0 0-4.7-2ZM328.4 333.7c-.4-1.7-1.2-3.3-1.7-5-1-3.9-.4-8-.9-12.1a21 21 0 0 0-7.4-13.5l-1.8-.7a10 10 0 0 1 3.6 5.2c1.4 4.8 1.8 9.8 2.5 14.7a197.1 197.1 0 0 0 4.1 22.7 22 22 0 0 0 1.6-11.3ZM309.3 316a6.3 6.3 0 0 0 2.1-4.2 17 17 0 0 0 0-4.2 1.4 1.4 0 0 1-1.6 1 3.5 3.5 0 0 1-2-1.8l-.3 1.3-.1-.7-.5.6c.7 2 1.4 4.3.3 6.2a7.2 7.2 0 0 1-2.3 2 3.8 3.8 0 0 0 4.4-.3Z" style="fill:#fff"/><path d="M311.3 307.1v.5a.8.8 0 0 0 0-.5ZM306 327.3c-3.4-6.9-7-13.7-10.8-20.4a66.3 66.3 0 0 0-7.7-11.2c-1.3-1.5-5.1-5-7.2-2.7-1.4 1.5.4 4.3-1.3 6 .4 0 2.3-.2 2.5 0a30.4 30.4 0 0 1 6.8 19.4c1.4-1.1 3.3.4 4.4 1.9a326.4 326.4 0 0 1 19 27c-1.1-4-1.2-8.5-2.4-12.6a45 45 0 0 0-3.3-7.4ZM346.8 344.1a43.8 43.8 0 0 0 3.1-13.8 22.6 22.6 0 0 0-3.1-12.5c-.6-1-3-4.8-4.3-4.5-2.4.6.7 4.6 1.3 5.7 2 3.8 4 7.9 4 12.2-.1 3.4-1.6 6.5-2.7 9.7a20.8 20.8 0 0 0-1.4 6.8l-.5.8a10.3 10.3 0 0 1-6.3 4.2l3-9c.3-1.1.4-2.6-.2-3.3a2.8 2.8 0 0 0 .3-1.3 6.6 6.6 0 0 0-.9-2.3c-1.3-2.9-.9-6.2-.5-9.4.4-3.9.5-8-.6-11.7s-3.8-7.2-7.5-8.4l1 1-1.3-1 2.3 5-.8 1.2c1.3-.7 3 .3 3.5 1.6a8.6 8.6 0 0 1 .3 4.3 86.2 86.2 0 0 0 1.2 24.3 11.8 11.8 0 0 1-1.5 5.3 5.3 5.3 0 0 1-5 2.7 5.3 5.3 0 0 0-1.9-5.3c-2 2.8-.8 7.1-.5 10.3a112.5 112.5 0 0 0 2.3 14.4 46.4 46.4 0 0 1 2.6-12l3.2 11.8a7 7 0 0 1 .7-3.2 2.4 2.4 0 0 1 2.7-1.3 3.4 3.4 0 0 1 1.7 2 36.8 36.8 0 0 1 2 21.7c1.3.7 3-.2 3.8-1.5a9 9 0 0 0 .7-4.5l-.7-40ZM312.9 348.4c-.6 1 2 5.5 2.4 6.6l6.6 16.1a76.5 76.5 0 0 0-5.1-20.6c-.5-1.1-2.6-4.4-4-2.1ZM316.3 319.8c-.4.6-.9 1.3-1.6 1.1s-.7-1-.7-1.6l.2-11.3c-3 2.2-2.6 5-2.8 8.3-.1 1.9.4 10.8-.9 11.9a33.3 33.3 0 0 0 7.5-9c-.6-.5-1.3 0-1.7.6Z" style="fill:#fff"/></g></g><path d="M324 307.6a78.7 78.7 0 0 1 2.7 20 10.8 10.8 0 0 0 .4 3.3 3.3 3.3 0 0 0 2.3 2.3M338.1 314.2c3 6.2 0 20.2.2 21.2a3.5 3.5 0 0 0 1.6 2.4M312.3 306.7l-1 6.3a11.5 11.5 0 0 1-4-8M293.2 360l-2.2 1M293.7 361.8a12.5 12.5 0 0 0 0 5M306.4 343.1l2.4 4.3M311 327.4l2.4-3.4M344.4 343.1l-.7 2.7M338.6 336l2.1-6.8M345.6 324a2.7 2.7 0 0 1 3.7 1.1M331.3 312.5a5.2 5.2 0 0 1 4.8 1.1M286.7 319.2a7.3 7.3 0 0 1 6.2-2.3M277.7 300.3a6.7 6.7 0 0 1 5-1.1" style="fill:none"/><path d="M279.6 345a12.8 12.8 0 0 0-3 3.4Z" style="fill:#fff"/><path d="M280.5 340.6c1.6-1.2 4.1 1.3 5.6 0a2.3 2.3 0 0 0 .5-2.1 7.5 7.5 0 0 1-.3-2.3M325.1 333.6a18.1 18.1 0 0 1 1.1 12.8M336.7 339.8a8.3 8.3 0 0 1-1 5.5" style="fill:none"/><path d="m321.1 436-10.4-32.8c-9.8-10-27.8-19.3-29.4-33.3-2-18-4.8-17.2-4.8-21.6a54.5 54.5 0 0 0 2.8-6.8 37.5 37.5 0 0 0 1-5.5 3.6 3.6 0 0 1 3.8-3 6.2 6.2 0 0 1 3.5 1.3 9.4 9.4 0 0 1 3 6.3 27.5 27.5 0 0 1-.5 7.1 46 46 0 0 1 3.8 12.2c.9-3.4 1.5-6.7 2.3-10 .2-.2.1-.5.3-.6-1.7-3.1-.4-3-3.9-10-5.8-11.6-12.1-22.8-17.2-37.6a8.7 8.7 0 0 1-.1-4.2c1.1-4.4 5.6-3.7 7.7-1.3a8.5 8.5 0 0 1 1.4 2A114.5 114.5 0 0 0 295 316l12 15.9s3.6-3.4 4.1-4.8c.5-1.4 0-12.7 0-12.7s-.7 2.2-2.6 2.2c-1.4 0-4.1 1-6.3-1.2a5.2 5.2 0 0 1-.6-6.5l4.5-7a7.5 7.5 0 0 1 7.6-1.4 36.6 36.6 0 0 1 9.1 5.5 17.9 17.9 0 0 1 7.7 1c3.6 1.4 7.6 6 7.6 6s4 0 6 1.2c.5.3 7.3 9.5 5.6 17.2-1 4.5-1.5 11.1-2 12.9v44.2l8.2 29.3" style="fill:none;stroke:#263238;stroke-miterlimit:10"/><path d="M324 307.6a78.7 78.7 0 0 1 2.7 20 10.8 10.8 0 0 0 .4 3.3 3.3 3.3 0 0 0 2.3 2.3M338.1 314.2c3 6.2 0 20.2.2 21.2a3.5 3.5 0 0 0 1.6 2.4M312.3 306.7l-1 6.3a11.5 11.5 0 0 1-4-8M293.2 360l-2.2 1M293.7 361.8a12.5 12.5 0 0 0 0 5M306.4 343.1l2.4 4.3M311 327.4l2.4-3.4M344.4 343.1l-.7 2.7M338.6 336l2.1-6.8M345.6 324a2.7 2.7 0 0 1 3.7 1.1M331.3 312.5a5.2 5.2 0 0 1 4.8 1.1M286.7 319.2a7.3 7.3 0 0 1 6.2-2.3M277.7 300.3a6.7 6.7 0 0 1 5-1.1M279.6 345a12.8 12.8 0 0 0-3 3.4M280.5 340.6c1.6-1.2 4.1 1.3 5.6 0a2.3 2.3 0 0 0 .5-2.1 7.5 7.5 0 0 1-.3-2.3M325.1 333.6a18.1 18.1 0 0 1 1.1 12.8M336.7 339.8a8.3 8.3 0 0 1-1 5.5" style="fill:none;stroke:#263238;stroke-miterlimit:10"/><path d="M240 354.8a6 6 0 0 1 0 2 311 311 0 0 0-3.3 16.6c-.8 6-10.2 24-10.2 24L213.3 414c-2.2 2.8-5.6 14-8.6 24.7l-11-3.6-9-3.4a147 147 0 0 1-15.6-7.6c1.7-6 2.8-10.7 2.8-11 0-.6 3.5-7.5 3.5-7.5l-3.1-41.5-1.9-6.3a47.4 47.4 0 0 1-1.8-10 48.3 48.3 0 0 1 1.3-15.3l5.4-8.1 2.5-.2 7.9-11s4.3-1.3 5.3 2-3.5 9.1-3.5 9.1l-1.6 9.9 3.8 9.2 2 .7s.7-16.2.2-19.5l4.1-14.8a70.5 70.5 0 0 0 3.3-7.4c.7-2.5 5.2-5 7.8-.6a6.4 6.4 0 0 1 .4 5.3c-1 3-2 5.4-2 5.4s-1 12.6-1.2 13S206 344 206 344l1.7.7.6-17.6 3.4-16.4s-.3-8 5.3-7a4.3 4.3 0 0 1 4 2.5c1.6 2.9.2 21.8.2 21.8l1.3 19.7 2.3 15 2.6-10.3s.1-14.8 9.5-16.1c0 0 2.8-.5 3.3 1.4s-1.3 6-1 9.7l.8 7.3Z" style="opacity:.2"/><path d="M237.2 336.4c-.4-2-3.2-1.7-3.2-1.7-9.5.6-10.8 15.4-10.8 15.4l-3.4 10.1-1-15.2.1-19.7s3-18.8 1.6-21.8a4.3 4.3 0 0 0-3.9-2.8c-5.5-1.4-5.8 6.5-5.8 6.5l-4.6 16.2-2 17.5-1.5-.9s-.8-18.5-.4-18.8 2.2-12.8 2.2-12.8l2.3-5.3a6.4 6.4 0 0 0 0-5.3c-2.2-4.5-6.9-2.4-7.8 0a70.4 70.4 0 0 1-3.8 7.2l-5.3 14.5c.2 3.3-1.7 19.5-1.7 19.5l-2-1-3-9.4 2.3-9.7s5.1-5.6 4.3-9-5.2-2.2-5.2-2.2l-8.7 10.3h-2.6l-6 7.6A48.3 48.3 0 0 0 166 351l1.4 6.4V399s-4 6.7-4 7.3c0 .3-1.8 5.5-4.2 12a203.6 203.6 0 0 0 25.7 13.4l9 3.4c3.8-10.7 8.2-22.1 10.7-24.8l14.3-15.4s10.8-17.4 12.1-23.2c1-4.7 3.6-13.3 4.5-16.3a5.8 5.8 0 0 0 .2-2l-.2-7.3c0-3.8 2.2-7.6 1.8-9.6Z" style="fill:#fff"/><g style="clip-path:url(#b)"><path d="M172.3 332.2c1.6-2 5-2.7 6.8-1a7.2 7.2 0 0 1 1.7 4 8.5 8.5 0 0 0 1.5 4.2c1 1 3 1.5 4 .5l.3 6.5a26 26 0 0 0 3.5-13.4c0-2.3-.4-4.6.1-6.8s2.3-4.4 4.6-4.5c2.5 0 4.5 2.4 5 4.8s-.1 5-.3 7.6a23 23 0 0 0 2.2 11.2l1.6-3.2 1.4 6.4 1.2-14.2a10.4 10.4 0 0 1 1-3.9 3.5 3.5 0 0 1 3.1-2c1.8.2 2.9 2.1 3.5 3.8 4.5 12.8 2.6 26.8.7 40.1 1.3.3 2.3-1 2.6-2.2a29 29 0 0 1 .7-3.8c.5-1.2 1.9-2.1 3-1.4 1.6 1 .5 4 2.1 4.9a22.8 22.8 0 0 1 4.6-11c1-1.4 2.7-2.8 4.5-2.4a3.6 3.6 0 0 1 2.4 3c.1 1.4 2-4.2 1.7-2.9.8-7.7-.7-8.5 0-16.2.2-1.4 2.4-3.8 1.5-4.8s-3.7-2.4-4.9-1.9-5.1 2.6-5.9 3.6c-4.9 6.8-4.6 16.6-6 24.9a132.2 132.2 0 0 1-.4-37.8c1.3-6.8 3.6-14 1.4-20.6-1-3-3.7-6-6.8-5.4-2.5.5-4 3-5 5.4-3.5 7.9-5 16.4-6.6 25l5.7-25.7a17.4 17.4 0 0 0 .5-6.7c-.4-2.3-1.9-4.5-4.1-5s-4.4.9-6 2.4c-6 5.5-8.2 13.8-10.2 21.6a15.5 15.5 0 0 0 1.2-6.3c-.2-2.2-1.6-4.3-3.7-4.8-2.7-.6-5.2 1.8-6.4 4.3s-1.8 5.5-3.7 7.5c-1.4-1.6-4-1.5-5.7-.3a11 11 0 0 0-3.7 5 46.5 46.5 0 0 0-3.8 22.5 8.2 8.2 0 0 1 8.2-4.7l-.6-5.1" style="fill:#75c2f6"/><path d="m178.9 348.5-.3 3.8a1.8 1.8 0 0 1 2.8-.7 4.1 4.1 0 0 1 .6-2.4c.4-.7.4-1.8-.4-2.1s-1.7.5-2.2 1.4v-1ZM193.2 346.3a8.8 8.8 0 0 0-2 4.1 4.3 4.3 0 0 1 1.5-1 1.5 1.5 0 0 1 1.7.3c.2.3.3.8.6 1a.8.8 0 0 0 1-.4 2.3 2.3 0 0 0 .2-1.1 6 6 0 0 0 0-2.2 2.1 2.1 0 0 0-1.5-1.5 1.3 1.3 0 0 0-1.6 1.1ZM207.1 349.7a11.4 11.4 0 0 0-2 5 4.4 4.4 0 0 0 1.9-1 3.9 3.9 0 0 1 2-1 1.4 1.4 0 0 1 1.5 1.2 9.4 9.4 0 0 1 .1-2.6 5.3 5.3 0 0 0-.2-2.5 2.1 2.1 0 0 0-2-1.4 1.3 1.3 0 0 0-1 1.8ZM169 354.7a10 10 0 0 0-1.3 4.7 1.6 1.6 0 0 1 1.5-1.5 3.3 3.3 0 0 1 2.1.6 5.8 5.8 0 0 0 .2-2.3 2 2 0 0 0-1.5-1.6c-.8-.1-1.6.6-1.4 1.4l-.2-.6Z" style="fill:#75c2f6"/><path d="M172.3 332.2c1.6-2 5-2.7 6.8-1a7.2 7.2 0 0 1 1.7 4 8.5 8.5 0 0 0 1.5 4.2c1 1 3 1.5 4 .5l.3 6.5a26 26 0 0 0 3.5-13.4c0-2.3-.4-4.6.1-6.8s2.3-4.4 4.6-4.5c2.5 0 4.5 2.4 5 4.8s-.1 5-.3 7.6a23 23 0 0 0 2.2 11.2l1.6-3.2 1.4 6.4 1.2-14.2a10.4 10.4 0 0 1 1-3.9 3.5 3.5 0 0 1 3.1-2c1.8.2 2.9 2.1 3.5 3.8 4.5 12.8 2.6 26.8.7 40.1 1.3.3 2.3-1 2.6-2.2a29 29 0 0 1 .7-3.8c.5-1.2 1.9-2.1 3-1.4 1.6 1 .5 4 2.1 4.9a22.8 22.8 0 0 1 4.6-11c1-1.4 2.7-2.8 4.5-2.4a3.6 3.6 0 0 1 2.4 3c.1 1.4 2-4.2 1.7-2.9.8-7.7-.7-8.5 0-16.2.2-1.4 2.4-3.8 1.5-4.8s-3.7-2.4-4.9-1.9-5.1 2.6-5.9 3.6c-4.9 6.8-4.6 16.6-6 24.9a132.2 132.2 0 0 1-.4-37.8c1.3-6.8 3.6-14 1.4-20.6-1-3-3.7-6-6.8-5.4-2.5.5-4 3-5 5.4-3.5 7.9-5 16.4-6.6 25l5.7-25.7a17.4 17.4 0 0 0 .5-6.7c-.4-2.3-1.9-4.5-4.1-5s-4.4.9-6 2.4c-6 5.5-8.2 13.8-10.2 21.6a15.5 15.5 0 0 0 1.2-6.3c-.2-2.2-1.6-4.3-3.7-4.8-2.7-.6-5.2 1.8-6.4 4.3s-1.8 5.5-3.7 7.5c-1.4-1.6-4-1.5-5.7-.3a11 11 0 0 0-3.7 5 46.5 46.5 0 0 0-3.8 22.5 8.2 8.2 0 0 1 8.2-4.7l-.6-5.1" style="fill:#fff;opacity:.5"/><g style="opacity:.5"><path d="m178.9 348.5-.3 3.8a1.8 1.8 0 0 1 2.8-.7 4.1 4.1 0 0 1 .6-2.4c.4-.7.4-1.8-.4-2.1s-1.7.5-2.2 1.4v-1ZM193.2 346.3a8.8 8.8 0 0 0-2 4.1 4.3 4.3 0 0 1 1.5-1 1.5 1.5 0 0 1 1.7.3c.2.3.3.8.6 1a.8.8 0 0 0 1-.4 2.3 2.3 0 0 0 .2-1.1 6 6 0 0 0 0-2.2 2.1 2.1 0 0 0-1.5-1.5 1.3 1.3 0 0 0-1.6 1.1ZM207.1 349.7a11.4 11.4 0 0 0-2 5 4.4 4.4 0 0 0 1.9-1 3.9 3.9 0 0 1 2-1 1.4 1.4 0 0 1 1.5 1.2 9.4 9.4 0 0 1 .1-2.6 5.3 5.3 0 0 0-.2-2.5 2.1 2.1 0 0 0-2-1.4 1.3 1.3 0 0 0-1 1.8ZM169 354.7a10 10 0 0 0-1.3 4.7 1.6 1.6 0 0 1 1.5-1.5 3.3 3.3 0 0 1 2.1.6 5.8 5.8 0 0 0 .2-2.3 2 2 0 0 0-1.5-1.6c-.8-.1-1.6.6-1.4 1.4l-.2-.6Z" style="fill:#fff"/></g></g><path d="M159.1 418.3c2.4-6.6 4-11.8 4-12.1 0-.6 4.2-7.3 4.2-7.3v-41.5l-1.4-6.5a48.3 48.3 0 0 1 1.4-25.3l6-7.6h2.5l8.7-10.3s4.4-1 5.2 2.3-4.2 8.9-4.2 8.9l-2.4 9.7 3.1 9.5 2 .9s1.8-16.2 1.6-19.5L195 305a70.4 70.4 0 0 0 3.8-7.2c1-2.4 5.6-4.5 7.8 0a6.4 6.4 0 0 1 0 5.3l-2.3 5.3s-2 12.5-2.2 12.8.4 18.8.4 18.8l1.6.9 1.9-17.5 4.6-16.2s.4-7.9 5.9-6.5a4.3 4.3 0 0 1 3.9 2.8c1.2 3-1.6 21.8-1.6 21.8l-.1 19.7 1 15.3 3.4-10.2s1.3-14.8 10.7-15.4c0 0 2.8-.2 3.2 1.7s-1.8 5.8-1.8 9.6l.2 7.3a5.8 5.8 0 0 1-.2 2c-.9 3-3.4 11.6-4.5 16.4-1.2 5.7-12 23.1-12 23.1l-14.4 15.4c-2.5 2.7-7 14.1-10.7 24.8" style="fill:none;stroke:#263238;stroke-miterlimit:10"/><path d="M188 340.5a6 6 0 0 1-1.4 5.7M171.8 354.5c1.4-2.1 2.7-5 2.4-7.5-.7-5-3-10.6-2-15.5l2-9.3" style="fill:#fff;stroke:#263238;stroke-miterlimit:10"/><path d="M211.7 308.1a9.8 9.8 0 0 1 5 0v-1.4M198.6 301.9a3.2 3.2 0 0 0 5-2.7M234.7 336.6a6.1 6.1 0 0 0-4.6 6.3l2.5.8" style="fill:none;stroke:#263238;stroke-miterlimit:10"/><path d="M202.5 337.8v7.4M204.4 340.1l-.6 8.3v-1M219.6 363.3a13.7 13.7 0 0 1-.9 9" style="fill:#fff;stroke:#263238;stroke-miterlimit:10"/><path d="M194.3 348.9c-2.2 2.4-1.9 8.1-.3 11.3M210.4 352.9a11.2 11.2 0 0 1-2.7 7.3M178.4 350a10.2 10.2 0 0 0 1.5 7M169.1 357.5a8.5 8.5 0 0 0 1.6 5.3M181.8 311.4a3.2 3.2 0 0 1 3.5.6l1.3-1.7M192.1 318.8a4.2 4.2 0 0 1 5.3.8M208.1 323.8a6.7 6.7 0 0 1 5.7 0M172.5 332.1a5.4 5.4 0 0 1 5.2-2.6M165.8 341.7a2.8 2.8 0 0 1 2.3-2.7" style="fill:none;stroke:#263238;stroke-miterlimit:10"/><circle cx="423.4" cy="228.4" r="41.5" style="fill:none;stroke:#263238;stroke-linecap:round;stroke-linejoin:round"/><path d="M470.4 229.5c-8.9 14.5-12 12.5-42.2 27-15.3 7.3-30-16.2-20-40.4.4-1.2 4.8-7.2 4.8-7.2a22 22 0 0 1 38.5-9.1 23.8 23.8 0 0 1 21.2-5l1 3 .4 1a89 89 0 0 1 1 3.6l1.9 6.7a13.6 13.6 0 0 0-9.8.6c-2.3 1.1-4.1 2.9-6.4 3.8s-5.5.3-6.4-2c1.1 4.7 6 3.3 10.7 4.2 7.1 1.4 9 7.7 5.3 13.8Z" style="opacity:.2"/><path d="M456.8 222.3s7.4-1 10.9-.4a6.8 6.8 0 0 1 4.3 2.4 2.4 2.4 0 0 1 .5 1.3l.4 5.8a2.4 2.4 0 0 1-.6 1.8c-1.5 1.5-5.9 4.3-18.8 5.3-18.2 1.4 3.3-16.2 3.3-16.2Z" style="fill:#fff;stroke:#263238;stroke-linecap:round;stroke-linejoin:round"/><path d="M451.3 207.3a27.7 27.7 0 0 1 6.1 17.7c0 7-8 30.5-28.5 33.4-21.7 3-39.1-15.5-35.4-37.9 2.6-15.4 40.4-34.8 57.8-13.2Z" style="fill:#fff;stroke:#263238;stroke-linecap:round;stroke-linejoin:round"/><ellipse cx="424.8" cy="223.4" rx="31.5" ry="29.8" style="fill:#fff"/><ellipse cx="424.8" cy="225" rx="25.8" ry="24.4" style="fill:#263238"/><path d="M456.3 223.4c0-16.4-14.1-29.8-31.5-29.8s-31.4 13.4-31.4 29.8M448 243.6a28.8 28.8 0 0 0 8.3-20.2M402.8 244.7a32.3 32.3 0 0 0 22 8.5 32.9 32.9 0 0 0 14.6-3.4M398.2 239.4l1.3 1.8M393.4 223.4a28.4 28.4 0 0 0 3 12.7" style="fill:none;stroke:#263238;stroke-linecap:round;stroke-linejoin:round"/><path d="M471 231.6s-5.6-4-14.7-.4M466.2 234.3a57.1 57.1 0 0 1-11.7 1.8M469 233a5.4 5.4 0 0 1-1.3.8" style="fill:#fff;stroke:#263238;stroke-linecap:round;stroke-linejoin:round"/><path d="m474 198.8-.3-1.1c-1.9-6-4.4-12.4-7.3-19.3l-1.8-3.8h-.6c-2.9.3-6 .7-8.3 2.3s-3.7 5-2.2 7.5 5.4 3.8 4.8 6.6c-6.4 3.6-14.2 3.2-21.4 5a34.8 34.8 0 0 0-11.9 5.6 36.7 36.7 0 0 0-3.2 2.7 12.8 12.8 0 0 0-1.4 1.4 4.9 4.9 0 0 0-1 2.6c-.3 2.6 2 4.5 4.7 5.6a.6.6 0 0 1 0 1.1 14.9 14.9 0 0 0-4.7 2.7 1.2 1.2 0 0 0 1 2h.4a7.5 7.5 0 0 1 3 .4 3.6 3.6 0 0 1 2.7 2.8c.2 2-2.1 3.9-5.1 4.1-.8 0-.2 1 .9 1.1a16 16 0 0 0 6.4-.5c2.5-.6 5.2-1.4 6.6-3.6a4.5 4.5 0 0 0 .6-3.2 3.2 3.2 0 0 0-2.7-2.9 87.5 87.5 0 0 0 13.7-2.8l1.4-.4a13.2 13.2 0 0 0 4-1.7 5.4 5.4 0 0 0 1.6-1.8c1-2-.4-5.2-2.6-4.8 6.4-2.5 13.2-4 19.7-6.3l3-1.3Z" style="fill:#fff"/><path d="M424.6 112.3a127 127 0 0 1-19.9 14c-36.4 21.6-77.5 34.5-119.3 40.8s-84.5 6-126.6 2.6a75.3 75.3 0 0 1-24.3-4.9 28.5 28.5 0 0 1-15-14.1c9-10.4 17.6-21 27-30.9l7-7 6-5.6 7.5-6.2c3.5-2.8 7.3-5.4 11.3-8l3-1.8c99.6-62 173-41.7 222 0q5.6 4.8 10.7 9.8l6 6.2.6.7 4 4.4Z" style="opacity:.2"/><path d="M428.6 102.4 93 103.9l5-7.6a13.2 13.2 0 0 1 11-5.8h303.6a13.1 13.1 0 0 1 10.2 4.9Z" style="fill:#fff;stroke:#263238;stroke-linecap:round;stroke-linejoin:round"/><rect width="86.7" height="86.7" x="214.2" y="152.7" rx="34.1" style="fill:#757575;stroke:#263238;stroke-linecap:round;stroke-linejoin:round"/><path d="M230 203.3v12.4a7 7 0 0 0 7 7h42.2a7 7 0 0 0 7-7c0-5.5.3-12.4.3-12.4Z" style="fill:#999;stroke:#263238;stroke-linecap:round;stroke-linejoin:round"/><path d="M384.6 207.4H137.4a6.3 6.3 0 0 1-5.9-4l-38.1-97.8a3.9 3.9 0 0 1 3.6-5.4h328a3.9 3.9 0 0 1 3.6 5.4l-38 97.8a6.3 6.3 0 0 1-6 4Z" style="fill:#bfbfbf;stroke:#263238;stroke-linecap:round;stroke-linejoin:round"/><path d="M386.5 198.9H135l-34.6-92.5h320.5l-34.4 92.5zM230.2 207.3h56.1v3.8h-56.1z" style="fill:#263238"/><path d="M349.7 195H172.1c-1 0-1.9-.4-2-1l-25.3-80.3c-.3-.9.5-1.6 1.8-1.6h228.7c1.3 0 2 .7 1.8 1.6L351.8 194c-.2.5-1.1 1-2 1Z" style="fill:#75c2f6"/><path d="M349.1 193.1H172.8l-21.5-70.5h219.2l-21.4 70.5z" style="fill:#263238"/><path d="M198.1 140.1h-33.4c-.8 0-1.3.5-1.2 1a1.8 1.8 0 0 0 1.8 1h33.2c.8 0 1.4-.4 1.3-1s-.9-1-1.7-1ZM199.2 146.2h-28.4c-.8 0-1.3.5-1.2 1a1.8 1.8 0 0 0 1.7 1h28.3c.8 0 1.3-.5 1.3-1s-.9-1-1.7-1Z" style="fill:#fff"/><path d="M200.3 152.1H168c-.8 0-1.3.4-1.2 1a1.8 1.8 0 0 0 1.7.8h32c.8 0 1.4-.4 1.3-.9s-.8-.9-1.6-.9Z" style="fill:#fff;opacity:.5"/><path d="M201.3 157.8h-18.9c-.8 0-1.3.4-1.2.9s.9.9 1.7.9h18.8c.7 0 1.3-.4 1.2-1s-.8-.8-1.6-.8ZM202.3 163.3h-31c-.8 0-1.4.3-1.2.8s.8.9 1.6.9h31c.7 0 1.3-.4 1.2-.9s-.8-.8-1.6-.8ZM203.3 168.6h-25.1c-.8 0-1.3.3-1.2.8s.9.8 1.6.8h25c.8 0 1.3-.3 1.2-.8s-.7-.8-1.5-.8ZM204.3 173.7h-24.8c-.7 0-1.2.4-1 .8s.7.8 1.5.8h24.6c.7 0 1.2-.4 1.1-.8s-.7-.8-1.4-.8ZM205.2 178.7h-27c-.8 0-1.3.3-1.1.7s.7.8 1.5.8h26.8c.7 0 1.3-.3 1.2-.8s-.7-.7-1.4-.7Z" style="fill:#fff"/><path d="M206 183.5h-17.4c-.7 0-1.2.3-1 .7s.7.8 1.4.8h17.3c.7 0 1.3-.4 1.2-.8s-.7-.7-1.4-.7ZM197 133.8h-25c-.8 0-1.3.5-1.2 1a1.8 1.8 0 0 0 1.8 1h24.7c.8 0 1.4-.4 1.3-1a1.7 1.7 0 0 0-1.7-1Z" style="fill:#fff;opacity:.5"/><path d="M195.7 127.3h-34.6c-.8 0-1.4.4-1.2 1a2 2 0 0 0 1.8 1h34.4c.9 0 1.5-.4 1.4-1a1.7 1.7 0 0 0-1.8-1ZM206.9 188.1h-28.7c-.7 0-1.2.4-1 .8s.7.7 1.4.7h28.6c.7 0 1.2-.3 1.1-.7s-.7-.8-1.4-.8Z" style="fill:#fff"/><path d="M209.8 142.4h6.5l-.3-2.5h-6.5l.3 2.5zM210.7 148.4h6.4l-.3-2.4h-6.4l.3 2.4zM211.6 154.2h6.2l-.3-2.3h-6.2l.3 2.3zM212.4 159.8h6.2l-.3-2.2h-6.2l.3 2.2zM213.3 165.2h6l-.3-2.1h-6.1l.4 2.1zM214 170.4h6l-.3-2h-6l.3 2zM214.8 175.5h5.8l-.2-2h-5.9l.3 2zM215.5 180.4h5.8l-.3-1.9h-5.8l.3 1.9zM216.3 185.2h5.6l-.2-1.9H216l.3 1.9zM208.9 136.1h6.6l-.4-2.5h-6.6l.4 2.5zM207.9 129.7h6.7l-.3-2.7h-6.8l.4 2.7zM216.9 189.8h5.6l-.2-1.8h-5.6l.2 1.8z" style="fill:#fff;opacity:.5"/><path d="M251 179.4c0-.4.6-.7 1.3-.7h95.9c.7 0 1.2.3 1 .7a1.6 1.6 0 0 1-1.5.8h-95.3c-.7 0-1.3-.3-1.3-.8ZM349.1 175.3h-53c-.8 0-1.3-.4-1.3-.8s.7-.8 1.5-.8h53.3c.7 0 1.2.4 1.1.8a1.6 1.6 0 0 1-1.6.8Z" style="fill:#fff"/><path d="M283.5 175.3H267c-.7 0-1.3-.4-1.3-.8s.6-.8 1.3-.8h16.6c.7 0 1.3.4 1.3.8s-.7.8-1.4.8Z" style="fill:#fff;opacity:.5"/><path d="M318 170.2h-75c-.7 0-1.3-.3-1.3-.8s.5-.8 1.3-.8h75.2c.8 0 1.3.3 1.2.8s-.7.8-1.5.8Z" style="fill:#fff"/><path d="M227.4 168.6h5.4c.7 0 1.4.3 1.4.8s-.5.8-1.3.8h-5.3c-.7 0-1.4-.3-1.4-.8s.5-.8 1.2-.8Z" style="fill:#fff;opacity:.5"/><path d="M328.8 164.1c-.2.5-.9.9-1.6.9h-70.5c-.8 0-1.4-.4-1.4-.9s.6-.8 1.3-.8h71c.7 0 1.3.3 1.1.8ZM226.9 163.3h20c.7 0 1.4.3 1.4.8s-.6.9-1.4.9h-19.8c-.8 0-1.5-.4-1.5-.9s.5-.8 1.3-.8ZM226.3 157.8h77c.7 0 1.3.4 1.2.9s-.7.9-1.5.9h-76.5c-.8 0-1.5-.4-1.5-1s.5-.8 1.3-.8ZM276.2 154c-.8 0-1.4-.5-1.4-1s.7-.9 1.5-.9H317c.8 0 1.4.4 1.3 1s-.8.8-1.6.8ZM225.7 152.1h35.1c.8 0 1.4.4 1.4 1s-.6.8-1.4.8h-35c-.7 0-1.4-.4-1.5-.9s.6-.9 1.4-.9ZM357 148.1h-96.8c-.8 0-1.4-.4-1.4-1s.6-1 1.4-1h97.3c.8 0 1.3.5 1.2 1a1.8 1.8 0 0 1-1.8 1ZM358.6 142.1h-85c-.9 0-1.5-.4-1.5-1s.7-1 1.5-1h85.6c.8 0 1.4.5 1.2 1a1.8 1.8 0 0 1-1.8 1Z" style="fill:#fff"/><path d="M360.4 135.9h-17.8c-.8 0-1.4-.5-1.3-1a1.8 1.8 0 0 1 1.8-1H361c.8 0 1.4.4 1.2 1a1.9 1.9 0 0 1-1.8 1Z" style="fill:#fff;opacity:.5"/><path d="M330.2 135.9h-65.5c-.8 0-1.5-.5-1.5-1s.7-1 1.6-1h65.8c.8 0 1.4.4 1.3 1a1.7 1.7 0 0 1-1.7 1ZM229 183.5h60.4c.8 0 1.3.3 1.3.7s-.7.8-1.4.8h-60.1c-.7 0-1.3-.4-1.4-.8s.5-.7 1.2-.7ZM229.5 188.1h92.9c.7 0 1.2.4 1 .8s-.6.7-1.3.7h-92.4c-.7 0-1.3-.3-1.4-.7s.5-.8 1.2-.8ZM327 129.4h-47.4c-.8 0-1.5-.5-1.4-1s.7-1.1 1.6-1.1h47.5c.9 0 1.5.4 1.4 1a1.7 1.7 0 0 1-1.8 1Z" style="fill:#fff"/><path d="M266.3 129.4h-43c-.9 0-1.7-.5-1.7-1s.6-1.1 1.4-1.1h43.3c.8 0 1.5.4 1.5 1s-.7 1-1.6 1ZM302.9 183.5c.7 0 1.2.3 1.2.7s-.7.8-1.5.8H298c-.7 0-1.3-.4-1.2-.8s.7-.7 1.4-.7ZM245.5 179.4c0 .5-.5.8-1.2.8h-6.4c-.7 0-1.4-.3-1.4-.8s.6-.7 1.3-.7h6.4c.7 0 1.3.3 1.3.7ZM322.3 158.7c-.1.5-.8.9-1.6.9h-7.4c-.8 0-1.4-.4-1.3-1s.8-.8 1.6-.8h7.5c.7 0 1.3.4 1.2.9ZM345.5 163.3c.8 0 1.3.3 1.2.8a1.7 1.7 0 0 1-1.6.9h-6c-.8 0-1.3-.4-1.2-.9a1.6 1.6 0 0 1 1.6-.8ZM248.5 148.1c-.8 0-1.5-.4-1.5-1s.6-1 1.4-1h6.3c.9 0 1.5.5 1.5 1s-.6 1-1.4 1Z" style="fill:#fff;opacity:.5"/><path d="M162.6 117.3a2.1 2.1 0 0 1-2.1 3 4.4 4.4 0 0 1-4-3 2.1 2.1 0 0 1 2.1-3 4.4 4.4 0 0 1 4 3ZM170.7 117.4a2.2 2.2 0 0 1-2.2 3 4.3 4.3 0 0 1-3.8-3 2.2 2.2 0 0 1 2.2-3 4.2 4.2 0 0 1 3.8 3ZM179 117.3a2.3 2.3 0 0 1-2.4 3 4 4 0 0 1-3.7-3 2.3 2.3 0 0 1 2.3-3 4 4 0 0 1 3.7 3Z" style="fill:#fff"/><path d="m100.4 106.4 26.9 72.1 32.5-72.1h-59.4zM145.9 198.9l53.9-92.5h56.4l-79.3 92.5h-31zM280.6 106l-84.1 92.9h13l87-92.5-15.9-.4zM297.2 198.9l92.3-92.5h13.1l-95.3 92.5h-10.1z" style="fill:#fff;opacity:.1"/><path d="M171.9 239h-21a5 5 0 0 0-5 5v10.3a5 5 0 0 0 5 5h5.4l4.2 9.5 5.9-9.5h5.5a5 5 0 0 0 5-5V244a5 5 0 0 0-5-5Z" style="fill:#fff;stroke:#263238;stroke-linecap:round;stroke-linejoin:round"/><path d="M158.4 245a1 1 0 0 1 1-1 1 1 0 0 1 1 .9 1 1 0 0 1-1 1 1 1 0 0 1-1-1Zm.2 2h1.6v6.9h-1.6ZM164.1 246.7v.4h1.9v1.3h-1.8v5.5h-1.6v-5.5h-1.2V247h1.2v-.5a2.2 2.2 0 0 1 2.4-2.3 2.6 2.6 0 0 1 1.5.3l-.5 1.2a1.6 1.6 0 0 0-.9-.2c-.6 0-1 .3-1 1Z" style="fill:#263238"/><path d="M236.1 240.5H215a5 5 0 0 0-5 5v10.3a5 5 0 0 0 5 5h5.5l4.2 9.4 5.9-9.4h5.5a5 5 0 0 0 5-5v-10.3a5 5 0 0 0-5-5Z" style="fill:#fff;stroke:#263238;stroke-linecap:round;stroke-linejoin:round"/><path d="M219.5 252.4H214a2 2 0 0 0 2.2 1.7 2.5 2.5 0 0 0 1.9-.8l.8 1a3.9 3.9 0 0 1-6.5-2.4 3.4 3.4 0 0 1 3.5-3.5 3.3 3.3 0 0 1 3.5 3.5v.5Zm-5.4-1h3.9a1.9 1.9 0 0 0-2-1.7 1.9 1.9 0 0 0-2 1.7ZM221 245.8h1.6v9.5H221ZM224 254.7l.6-1.3a4.6 4.6 0 0 0 2.4.7c1 0 1.4-.3 1.4-.7 0-1.4-4.2-.1-4.2-2.9 0-1.3 1.2-2.1 3-2.1a5.5 5.5 0 0 1 2.6.6l-.7 1.2a3.8 3.8 0 0 0-2-.5c-1 0-1.4.3-1.4.8 0 1.4 4.2.1 4.2 2.8 0 1.3-1.1 2.1-3 2.1a5.4 5.4 0 0 1-2.9-.8ZM237.8 252.4h-5.4a2 2 0 0 0 2.2 1.7 2.5 2.5 0 0 0 1.9-.8l.8 1a3.9 3.9 0 0 1-6.5-2.4 3.4 3.4 0 0 1 3.5-3.5 3.3 3.3 0 0 1 3.5 3.5v.5Zm-5.4-1h3.9a1.9 1.9 0 0 0-2-1.7 1.9 1.9 0 0 0-2 1.7Z" style="fill:#263238"/><path d="M298.4 239.9h-21.1a5 5 0 0 0-5 5V255a5 5 0 0 0 5 5h5.5l4.2 9.5 5.9-9.5h5.5a5 5 0 0 0 5-5v-10.3a5 5 0 0 0-5-4.9Z" style="fill:#fff;stroke:#263238;stroke-linecap:round;stroke-linejoin:round"/><path d="M282.1 247.5v.4h1.9v1.3h-1.8v5.5h-1.6v-5.5h-1.2v-1.3h1.2v-.4a2.2 2.2 0 0 1 2.4-2.4 2.5 2.5 0 0 1 1.4.4l-.4 1.2a1.5 1.5 0 0 0-.9-.3c-.6 0-1 .4-1 1.1ZM284.4 251.3a3.7 3.7 0 1 1 3.7 3.5 3.5 3.5 0 0 1-3.7-3.5Zm5.7 0a2 2 0 1 0-2 2.1 2 2 0 0 0 2-2.1ZM297.2 247.8v1.5a2.6 2.6 0 0 0-.3 0 1.9 1.9 0 0 0-2 2.1v3.4h-1.6v-6.9h1.5v1a2.7 2.7 0 0 1 2.4-1.1Z" style="fill:#263238"/><path d="M359.7 239h-21a5 5 0 0 0-5 5v10.3a5 5 0 0 0 5 5h5.5l4.1 9.5 6-9.5h5.4a5 5 0 0 0 5-5V244a5 5 0 0 0-5-5Z" style="fill:#fff;stroke:#263238;stroke-linecap:round;stroke-linejoin:round"/><path d="M346.4 246.7h6v1.3h-6Zm0 3.1h6v1.3h-6Z" style="fill:#263238"/><path d="M204 227.2h-21a5 5 0 0 0-5 5v10.3a5 5 0 0 0 5 5h5.5l4.2 9.4 5.9-9.4h5.5a5 5 0 0 0 5-5v-10.3a5 5 0 0 0-5-5Z" style="fill:#fff;stroke:#263238;stroke-linecap:round;stroke-linejoin:round"/><path d="M188.6 231.4h3v1.3h-1.4v9.5h1.4v1.3h-3ZM195.6 243.5v-1.3h1.4v-9.5h-1.4v-1.2h3v12Z" style="fill:#263238"/><path d="M266.8 226.1h-21.1a5 5 0 0 0-5 5v10.3a5 5 0 0 0 5 5h5.5l4.2 9.5 5.9-9.5h5.5a5 5 0 0 0 5-5v-10.3a5 5 0 0 0-5-5Z" style="fill:#fff;stroke:#263238;stroke-linecap:round;stroke-linejoin:round"/><path d="M252 236.4c.4.1.7.5.7 1.3v2.4a.9.9 0 0 0 1 1h.3v1.3h-.7a2 2 0 0 1-2.2-2v-2.7c0-.4-.2-.6-.5-.6h-.5v-1.3h.5c.3 0 .5-.2.5-.7v-2.6a2 2 0 0 1 2.2-2.1h.7v1.3h-.3a.9.9 0 0 0-1 1v2.4c0 .8-.3 1.1-.8 1.3ZM261.7 235.7v1.3h-.4c-.3 0-.6.2-.6.6v2.7a2 2 0 0 1-2.2 2h-.6v-1.2h.3a.9.9 0 0 0 1-1v-2.4c0-.8.2-1.2.7-1.3-.5-.2-.7-.6-.7-1.4v-2.4a.9.9 0 0 0-1-1h-.3v-1.3h.6a2 2 0 0 1 2.2 2.1v2.6c0 .5.3.7.6.7Z" style="fill:#263238"/><path d="M328.8 224h-21a5 5 0 0 0-5 5v10.3a5 5 0 0 0 5 5h5.4l4.2 9.5 6-9.5h5.4a5 5 0 0 0 5-5V229a5 5 0 0 0-5-5Z" style="fill:#fff;stroke:#263238;stroke-linecap:round;stroke-linejoin:round"/><path d="M317.4 231.7a1 1 0 1 1 2.2 0 1 1 0 1 1-2.2 0Zm2.2 4.9a3 3 0 0 1-.3 1l-.7 1.9h-1l.5-2a1 1 0 0 1-.6-1 1 1 0 1 1 2.1 0Z" style="fill:#263238"/><path d="M246.4 403.5h21a5 5 0 0 0 5-5v-10.2a5 5 0 0 0-5-5H262l-1.6-9.5-8.4 9.5h-5.5a5 5 0 0 0-5 5v10.2a5 5 0 0 0 5 5Z" style="fill:#fff;stroke:#263238;stroke-linecap:round;stroke-linejoin:round"/><path d="m253.8 391.3-4.5 1.7 4.5 1.6v1.4l-6-2.3v-1.4l6-2.3ZM258.4 386.6h1.5l-4.3 12.1h-1.4ZM266.1 392.3v1.3l-6 2.3v-1.3l4.5-1.6-4.4-1.7V390Z" style="fill:#263238"/><path d="M112.2 328.8h21.1a5 5 0 0 0 5-5v-10.3a5 5 0 0 0-5-5h-5.5l1.2-9.4-11.3 9.4h-5.5a5 5 0 0 0-5 5v10.3a5 5 0 0 0 5 5Z" style="fill:#fff;stroke:#263238;stroke-linecap:round;stroke-linejoin:round"/><path d="M118.5 322.3a1 1 0 0 1 1-1 1 1 0 0 1 1 1 1 1 0 0 1-1 1 1 1 0 0 1-1-1Zm0-8.1h2l-.3 6h-1.3ZM122.1 316.5h6v1.2h-6Zm0 3h6v1.4h-6Z" style="fill:#263238"/><path d="M450 317.1a71.8 71.8 0 0 1-1 11.9c-2.9 17.3-12 30-22.8 30a13.7 13.7 0 0 1-2.8-.4c-11.8-2.5-20.9-20.1-20.9-41.5 0-23 10.6-31.2 23.7-31.2S450 294 450 317Z" style="fill:#fff"/><g style="clip-path:url(#c)"><path d="M441.4 317.4a103 103 0 0 1-4.8 36.7c9-7.4 13-18.9 16.8-29.8 2.7-8 5.4-16.2 5-24.6s-5-17-13-20a17.1 17.1 0 0 0-12 .2c-6.6 2.7-3 4.8-.2 9.6a64.6 64.6 0 0 1 8.2 27.9Z" style="fill:#75c2f6"/><path d="M441.4 317.4a103 103 0 0 1-4.8 36.7c9-7.4 13-18.9 16.8-29.8 2.7-8 5.4-16.2 5-24.6s-5-17-13-20a17.1 17.1 0 0 0-12 .2c-6.6 2.7-3 4.8-.2 9.6a64.6 64.6 0 0 1 8.2 27.9Z" style="fill:#fff;opacity:.5"/></g><path d="M450 317.1a71.8 71.8 0 0 1-1 11.9c-2.9 17.3-12 30-22.8 30a13.7 13.7 0 0 1-2.8-.4c-11.8-2.5-20.9-20.1-20.9-41.5 0-23 10.6-31.2 23.7-31.2S450 294 450 317Z" style="fill:none;stroke:#263238;stroke-miterlimit:10"/><path d="M439 338.4a41 41 0 0 1-7.7 14.6" style="fill:#fff;stroke:#263238;stroke-miterlimit:10"/><path d="m439.8 335.4-.4 1.7" style="fill:none;stroke:#263238;stroke-miterlimit:10"/><path d="M439.7 317a40.8 40.8 0 0 1 .5 16.3" style="fill:#fff;stroke:#263238;stroke-miterlimit:10"/><path d="M402.6 317.1s27-10.6 47.4 0" style="fill:none;stroke:#263238;stroke-miterlimit:10"/><path d="M426.3 285.9s2.7 10 3 26.2" style="fill:#fff;stroke:#263238;stroke-miterlimit:10"/><path d="M430 298c.4 3.1-.1 5.8-1.1 6s-2.1-2.3-2.5-5.4.2-5.8 1.2-6 2.1 2.3 2.5 5.4Z" style="fill:#bfbfbf;stroke:#263238;stroke-linecap:round;stroke-linejoin:round"/><path d="M415.7 367H384a7.8 7.8 0 0 1-7.7-6.8 5.3 5.3 0 0 1 0-1v-74.7a5.6 5.6 0 0 1 0-1 7.7 7.7 0 0 1 7.7-6.7h89.7a7.7 7.7 0 0 1 3.8 1" style="fill:none;stroke:#263238;stroke-miterlimit:10"/></svg>