<?xml version="1.0" standalone="no"?>
<!DOCTYPE svg PUBLIC "-//W3C//DTD SVG 20010904//EN"
 "http://www.w3.org/TR/2001/REC-SVG-20010904/DTD/svg10.dtd">
<svg version="1.0" xmlns="http://www.w3.org/2000/svg"
 width="328.000000pt" height="308.000000pt" viewBox="0 0 328.000000 308.000000"
 preserveAspectRatio="xMidYMid meet">

<g transform="translate(0.000000,308.000000) scale(0.100000,-0.100000)"
fill="#000000" stroke="none">
<path d="M655 1923 c-231 -49 -375 -238 -375 -493 0 -206 93 -370 256 -450 62
-30 79 -34 174 -38 91 -3 112 -1 160 18 30 12 74 37 97 56 23 19 44 34 46 34
3 0 21 -22 41 -50 34 -47 38 -50 81 -50 l45 0 0 235 c0 223 -1 235 -20 245
-12 7 -92 9 -217 8 l-198 -3 0 -80 0 -80 78 -3 c87 -3 93 -11 57 -70 -51 -83
-191 -81 -246 4 -54 81 -59 343 -9 448 18 37 79 76 121 76 15 0 47 -9 70 -21
40 -19 64 -52 87 -121 8 -23 42 -22 167 0 l95 17 -2 38 c-7 109 -156 246 -301
276 -51 11 -166 13 -207 4z"/>
<path d="M2300 1875 c-13 -34 -13 -875 0 -910 l10 -27 253 4 c226 5 258 7 311
27 207 75 306 222 306 456 0 150 -41 256 -132 341 -109 102 -239 134 -546 134
l-192 0 -10 -25z m446 -201 c78 -27 117 -90 129 -206 12 -123 -23 -230 -93
-279 -36 -25 -116 -49 -167 -49 l-25 0 0 273 c0 151 3 276 6 280 9 9 104 -3
150 -19z"/>
<path d="M1350 1861 c-13 -24 -13 -181 0 -201 7 -12 42 -16 169 -20 l161 -5
-127 -180 c-251 -357 -253 -361 -253 -411 0 -90 -31 -84 405 -84 335 0 386 2
399 16 12 12 16 36 16 102 0 48 -5 94 -10 102 -7 12 -44 16 -191 20 l-181 5
167 235 c236 330 217 297 213 371 l-3 64 -377 3 c-365 2 -378 2 -388 -17z
m730 -60 c0 -33 -17 -62 -127 -217 -69 -99 -159 -224 -200 -279 -72 -99 -84
-127 -61 -141 6 -4 88 -6 181 -5 92 1 176 -1 185 -3 14 -5 17 -19 17 -78 l0
-73 -365 0 -365 0 -1 25 c-1 14 2 36 7 49 5 12 93 142 195 288 102 146 188
272 191 279 3 8 0 21 -7 29 -10 12 -44 15 -179 15 l-167 0 3 68 c1 37 2 70 3
75 0 4 155 7 345 7 l345 0 0 -39z"/>
</g>
</svg>
