<svg version="1.0" xmlns="http://www.w3.org/2000/svg"
 width="500.000000pt" height="500.000000pt" viewBox="0 0 500.000000 500.000000"
 preserveAspectRatio="xMidYMid meet">
<g transform="translate(0.000000,500.000000) scale(0.100000,-0.100000)"
fill="#000000" stroke="none">
<path fill="#798bf2" d="M2360 4814 c-300 -26 -346 -33 -559 -95 -361 -104 -677 -290 -950
-559 -160 -158 -307 -351 -400 -525 -18 -33 -36 -67 -41 -75 -23 -38 -101
-234 -125 -315 -15 -49 -31 -99 -36 -110 -8 -18 -29 -116 -44 -205 -3 -19 -11
-64 -17 -100 -6 -36 -12 -159 -12 -275 0 -184 4 -230 28 -370 23 -137 104
-439 125 -470 4 -5 20 -41 36 -80 63 -153 178 -349 278 -475 7 -8 28 -35 47
-59 49 -62 234 -249 300 -303 61 -51 263 -191 325 -226 100 -56 278 -137 380
-172 170 -59 396 -108 535 -116 l85 -5 36 59 c35 56 36 60 15 60 -40 0 -231
23 -266 32 -19 4 -57 11 -85 15 -88 11 -313 82 -440 138 -138 62 -353 192
-490 297 -11 8 -81 76 -155 150 -124 123 -246 270 -281 338 -8 15 -17 29 -20
32 -10 8 -108 186 -125 227 -9 21 -24 56 -34 78 -24 54 -53 140 -88 260 -59
199 -76 342 -75 605 1 215 12 317 54 490 13 52 23 97 24 100 0 3 3 10 7 15 3
6 13 33 21 60 23 78 115 282 164 365 120 205 197 305 342 450 151 150 245 230
271 230 5 0 10 3 10 8 0 20 233 155 382 221 187 82 333 122 580 161 112 17
323 22 461 11 320 -26 604 -113 870 -266 48 -27 96 -54 105 -60 96 -55 254
-184 373 -306 164 -167 280 -327 381 -528 29 -58 58 -109 63 -113 6 -4 6 -8 2
-8 -4 0 -3 -9 4 -21 10 -20 14 -17 54 42 l43 64 -61 115 c-259 488 -650 840
-1171 1054 -116 48 -306 104 -406 121 -179 30 -415 48 -520 39z"/>
<path d="M1364 4178 c-3 -4 -2 -26 1 -50 12 -99 25 -343 25 -480 l0 -148 -86
0 c-358 0 -646 -261 -728 -661 -35 -173 -30 -400 15 -559 94 -339 363 -539
726 -540 156 0 258 29 362 103 70 50 75 53 63 31 -6 -11 -67 -113 -138 -229
-313 -516 -314 -518 -314 -566 l0 -44 1102 2 1103 2 -2 23 c-12 112 -23 348
-23 509 l0 196 98 7 c247 16 468 122 598 284 59 73 127 215 154 317 12 47 23
130 27 201 20 407 -128 698 -417 817 -153 63 -295 82 -557 74 -106 -4 -193 -4
-193 -1 0 12 61 117 210 363 148 244 160 268 160 312 0 44 -2 48 -22 43 -45
-9 -1509 -15 -1831 -7 -181 4 -331 5 -333 1z m1706 -104 c0 -3 -86 -148 -191
-322 -106 -174 -321 -531 -479 -792 -318 -527 -480 -792 -487 -800 -3 -3 -3
50 -1 116 3 139 12 158 79 169 31 5 39 11 39 28 l0 22 -295 0 c-294 0 -295 0
-295 -21 0 -19 8 -22 67 -28 83 -9 129 -30 151 -70 25 -46 31 -417 8 -461 -20
-37 -67 -70 -147 -102 -53 -22 -78 -25 -163 -25 -295 2 -465 150 -531 462 -23
110 -38 318 -31 440 21 382 144 636 356 733 54 24 78 29 150 31 l85 1 -3 -102
-3 -103 50 0 c28 0 51 4 51 9 0 19 22 166 25 169 2 2 36 -13 76 -34 145 -76
213 -175 252 -369 21 -103 22 -105 49 -105 l28 0 0 178 c0 97 3 221 7 275 l6
97 -31 0 c-28 0 -32 -3 -32 -26 0 -44 -22 -105 -43 -115 -15 -9 -31 -2 -85 34
-77 51 -146 89 -192 105 -36 13 -36 4 2 162 48 205 151 338 309 401 107 42
176 47 712 48 279 1 507 -2 507 -5z m479 -654 c400 -41 562 -273 561 -802 -1
-536 -170 -770 -579 -801 l-64 -5 6 79 6 80 -52 -3 -52 -3 -7 -68 c-3 -38 -8
-70 -10 -72 -10 -11 -55 25 -70 55 -17 32 -18 89 -18 738 0 750 0 755 49 781
21 12 84 28 112 30 9 1 62 -4 118 -9z m-514 -1497 c-9 -59 -47 -90 -125 -99
-53 -6 -60 -9 -60 -28 0 -21 1 -21 244 -21 134 0 247 -3 251 -7 8 -8 -19 -153
-42 -231 -45 -154 -137 -272 -255 -330 -135 -66 -180 -71 -750 -74 -296 -2
-509 1 -512 6 -3 5 38 80 91 167 53 88 111 184 128 214 17 30 71 120 120 200
48 80 102 170 120 200 17 30 70 118 116 195 47 77 150 248 229 380 78 132 153
256 165 275 20 32 145 241 241 402 l39 66 3 -636 c2 -350 0 -656 -3 -679z"/>
<path d="M4520 2971 c0 -29 19 -38 113 -51 48 -8 86 -18 84 -23 -2 -6 -40 -30
-85 -54 -57 -31 -82 -50 -82 -63 0 -10 4 -21 9 -24 5 -3 61 25 125 62 92 53
116 71 116 89 0 15 -7 24 -22 28 -66 15 -248 55 -252 55 -3 0 -6 -8 -6 -19z"/>
<path d="M4560 2510 l0 -90 135 0 135 0 0 91 c0 88 -1 90 -22 87 -21 -3 -23
-9 -26 -66 l-3 -63 -32 3 -32 3 3 53 c3 50 2 52 -22 52 -25 0 -26 -3 -26 -55
0 -54 0 -55 -30 -55 l-30 0 0 65 c0 63 -1 65 -25 65 -25 0 -25 -1 -25 -90z"/>
<path d="M4566 2198 c-25 -25 -36 -48 -45 -96 -7 -35 -10 -66 -8 -68 2 -3 59
-15 126 -28 l122 -23 10 24 c5 13 11 48 15 76 9 90 -48 147 -147 147 -33 0
-47 -6 -73 -32z m133 -33 c16 -8 31 -22 35 -30 8 -23 8 -83 -1 -88 -5 -2 -45
3 -90 11 l-82 15 6 31 c13 67 69 94 132 61z"/>
<path d="M4453 1853 c-3 -10 -19 -51 -35 -92 -19 -48 -26 -77 -19 -84 19 -19
38 1 60 63 l23 62 59 -106 c76 -134 85 -136 127 -23 40 107 41 111 17 115 -16
2 -24 -9 -43 -58 -13 -33 -27 -60 -30 -60 -4 0 -27 37 -52 82 -62 113 -92 142
-107 101z"/>
<path d="M4275 1463 c-22 -37 -41 -70 -43 -74 -3 -7 24 -23 184 -116 l42 -24
32 58 c18 32 39 68 47 80 13 19 12 23 -6 32 -17 10 -23 5 -51 -42 -18 -28 -34
-53 -35 -55 -5 -6 -55 22 -55 30 0 5 12 29 26 53 24 42 25 44 6 54 -17 9 -23
5 -43 -34 -26 -48 -35 -53 -64 -32 -17 13 -17 16 10 65 26 49 27 72 1 72 -6 0
-30 -30 -51 -67z"/>
<path d="M4030 1125 c-8 -9 -9 -19 -4 -24 112 -96 198 -161 203 -155 5 5 31
38 60 73 48 59 51 65 36 80 -15 14 -17 15 -28 0 -7 -8 -26 -33 -44 -54 l-32
-38 -80 67 c-44 36 -84 66 -89 66 -5 0 -15 -7 -22 -15z"/>
<path d="M3781 886 c-10 -11 4 -32 70 -108 45 -51 87 -94 93 -95 6 -2 40 24
76 56 58 53 63 61 50 75 -14 14 -20 12 -60 -24 -25 -21 -50 -39 -55 -40 -6 0
-39 34 -75 75 -67 77 -79 85 -99 61z"/>
<path d="M3595 746 c-17 -12 -14 -19 51 -119 38 -59 74 -107 79 -107 23 0 40
19 30 34 -5 9 -37 58 -70 110 -33 53 -63 95 -66 96 -3 0 -13 -6 -24 -14z"/>
<path d="M3396 627 c-16 -12 -15 -17 13 -77 36 -76 41 -134 12 -150 -53 -28
-91 1 -131 99 -17 42 -30 61 -43 61 -31 0 -30 -27 4 -100 43 -94 78 -124 137
-117 95 11 128 89 82 194 -11 26 -26 60 -33 76 -14 31 -17 32 -41 14z"/>
<path d="M2913 450 c-59 -36 -79 -110 -47 -172 37 -71 99 -93 164 -59 22 11
46 18 54 15 29 -11 34 5 22 59 -18 75 -19 77 -66 65 -30 -8 -40 -15 -40 -30 0
-17 5 -20 30 -14 37 7 39 -6 5 -39 -33 -33 -70 -32 -106 4 -66 67 -10 172 74
137 31 -12 35 -12 45 5 27 43 -75 66 -135 29z"/>
</g>
</svg>
