<svg xmlns="http://www.w3.org/2000/svg" width="865.76" height="682.89" viewBox="0 0 865.76 682.89"><rect x="3.6" y="606.46" width="858.57" height="0.43" fill="#ebebeb"/><rect x="719.27" y="634.09" width="56.87" height="0.43" fill="#ebebeb"/><rect x="557.43" y="638.76" width="14.92" height="0.43" fill="#ebebeb"/><rect x="684.6" y="618.15" width="32.95" height="0.43" fill="#ebebeb"/><rect x="93.68" y="621.04" width="74.16" height="0.43" fill="#ebebeb"/><rect x="183.14" y="621.04" width="10.87" height="0.43" fill="#ebebeb"/><rect x="229.35" y="628.28" width="160.86" height="0.43" fill="#ebebeb"/><path d="M410.56,529.87H79a9.8,9.8,0,0,1-9.79-9.8V54A9.79,9.79,0,0,1,79,44.27H410.56a9.8,9.8,0,0,1,9.8,9.8h0v466A9.8,9.8,0,0,1,410.56,529.87ZM79,44.61A9.37,9.37,0,0,0,69.64,54V520.07A9.37,9.37,0,0,0,79,529.44H410.56a9.38,9.38,0,0,0,9.37-9.37V54a9.38,9.38,0,0,0-9.37-9.37Z" fill="#ebebeb"/><path d="M782,529.87H450.41a9.82,9.82,0,0,1-9.8-9.8V54a9.82,9.82,0,0,1,9.8-9.71H782A9.79,9.79,0,0,1,791.76,54V520.07A9.8,9.8,0,0,1,782,529.87ZM450.41,44.61A9.39,9.39,0,0,0,441,54V520.07a9.39,9.39,0,0,0,9.37,9.37H782a9.39,9.39,0,0,0,9.38-9.37V54A9.39,9.39,0,0,0,782,44.61Z" fill="#ebebeb"/><rect x="352.42" y="151.04" width="416.03" height="401.02" fill="#e0e0e0"/><rect x="359.1" y="158.32" width="409.35" height="386.73" fill="#f5f5f5"/><polygon points="362.12 451.4 362.12 335.06 374.19 335.06 374.19 319.69 401.39 306.99 401.39 291.26 405.92 291.26 405.92 335.06 410.46 335.06 410.46 451.4 416.5 451.4 416.5 390.96 430.1 390.96 430.1 359.24 434.63 359.24 434.63 451.4 445.19 451.4 445.19 416.64 452.75 416.64 452.75 407.58 469.37 407.58 469.37 375.86 478.44 375.86 478.44 354.71 489.01 354.71 489.01 322.98 493.55 322.98 493.55 354.71 504.13 354.71 504.13 375.86 513.18 375.86 513.18 407.58 529.8 407.58 529.8 416.64 537.35 416.64 537.35 451.4 546.42 451.4 546.42 407.58 563.04 407.58 563.04 310.9 567.58 310.9 567.58 300.32 603.82 300.32 603.82 310.9 611.38 310.9 611.38 380.4 641.6 380.4 641.6 387.93 652.16 387.93 652.16 392.47 641.6 392.47 641.6 419.67 673.32 419.67 673.32 329.02 679.36 329.02 679.36 310.9 694.47 310.9 694.47 241.41 699 241.41 699 310.9 709.58 310.9 709.58 329.02 768.45 329.02 768.45 545.05 359.1 545.05 359.1 451.4 362.12 451.4" fill="#e6e6e6"/><rect x="732.71" y="333.76" width="4.28" height="4.28" fill="#f0f0f0"/><rect x="732.71" y="340.94" width="4.28" height="4.28" fill="#f0f0f0"/><rect x="732.71" y="369.65" width="4.28" height="4.28" fill="#f0f0f0"/><rect x="732.71" y="376.81" width="4.28" height="4.28" fill="#f0f0f0"/><rect x="732.71" y="383.98" width="4.28" height="4.28" fill="#f0f0f0"/><rect x="732.71" y="405.52" width="4.28" height="4.28" fill="#f0f0f0"/><rect x="732.71" y="412.7" width="4.28" height="4.28" fill="#f0f0f0"/><rect x="725.91" y="362.47" width="4.28" height="4.28" fill="#f0f0f0"/><rect x="725.91" y="369.65" width="4.28" height="4.28" fill="#f0f0f0"/><rect x="725.91" y="376.81" width="4.28" height="4.28" fill="#f0f0f0"/><rect x="725.91" y="383.98" width="4.28" height="4.28" fill="#f0f0f0"/><rect x="725.91" y="391.16" width="4.28" height="4.28" fill="#f0f0f0"/><rect x="725.91" y="405.52" width="4.28" height="4.28" fill="#f0f0f0"/><rect x="725.91" y="412.7" width="4.28" height="4.28" fill="#f0f0f0"/><rect x="719.11" y="333.76" width="4.28" height="4.28" fill="#f0f0f0"/><rect x="719.11" y="340.94" width="4.28" height="4.28" fill="#f0f0f0"/><rect x="719.11" y="348.11" width="4.28" height="4.28" fill="#f0f0f0"/><rect x="719.11" y="355.29" width="4.28" height="4.28" fill="#f0f0f0"/><rect x="719.11" y="362.47" width="4.28" height="4.28" fill="#f0f0f0"/><rect x="719.11" y="369.65" width="4.28" height="4.28" fill="#f0f0f0"/><rect x="719.11" y="376.81" width="4.28" height="4.28" fill="#f0f0f0"/><rect x="719.11" y="383.98" width="4.28" height="4.28" fill="#f0f0f0"/><rect x="719.11" y="391.16" width="4.28" height="4.28" fill="#f0f0f0"/><rect x="719.11" y="398.34" width="4.28" height="4.28" fill="#f0f0f0"/><rect x="719.11" y="412.7" width="4.28" height="4.28" fill="#f0f0f0"/><rect x="712.31" y="333.76" width="4.28" height="4.28" fill="#f0f0f0"/><rect x="712.31" y="340.94" width="4.28" height="4.28" fill="#f0f0f0"/><rect x="712.31" y="348.11" width="4.28" height="4.28" fill="#f0f0f0"/><rect x="712.31" y="355.29" width="4.28" height="4.28" fill="#f0f0f0"/><rect x="712.31" y="362.47" width="4.28" height="4.28" fill="#f0f0f0"/><rect x="712.31" y="369.65" width="4.28" height="4.28" fill="#f0f0f0"/><rect x="712.31" y="376.81" width="4.28" height="4.28" fill="#f0f0f0"/><rect x="712.31" y="441.41" width="4.28" height="4.28" fill="#f0f0f0"/><rect x="705.51" y="333.76" width="4.28" height="4.28" fill="#f0f0f0"/><rect x="705.51" y="340.94" width="4.28" height="4.28" fill="#f0f0f0"/><rect x="705.51" y="348.11" width="4.28" height="4.28" fill="#f0f0f0"/><rect x="705.51" y="355.29" width="4.28" height="4.28" fill="#f0f0f0"/><rect x="705.51" y="362.47" width="4.28" height="4.28" fill="#f0f0f0"/><rect x="705.51" y="369.65" width="4.28" height="4.28" fill="#f0f0f0"/><rect x="705.51" y="376.81" width="4.28" height="4.28" fill="#f0f0f0"/><rect x="705.51" y="383.98" width="4.28" height="4.28" fill="#f0f0f0"/><rect x="705.51" y="427.05" width="4.28" height="4.28" fill="#f0f0f0"/><rect x="705.51" y="434.23" width="4.28" height="4.28" fill="#f0f0f0"/><rect x="705.51" y="441.41" width="4.28" height="4.28" fill="#f0f0f0"/><rect x="705.51" y="448.57" width="4.28" height="4.28" fill="#f0f0f0"/><rect x="705.51" y="477.28" width="4.28" height="4.28" fill="#f0f0f0"/><rect x="698.71" y="333.76" width="4.28" height="4.28" fill="#f0f0f0"/><rect x="698.71" y="340.94" width="4.28" height="4.28" fill="#f0f0f0"/><rect x="698.71" y="348.11" width="4.28" height="4.28" fill="#f0f0f0"/><rect x="698.71" y="355.29" width="4.28" height="4.28" fill="#f0f0f0"/><rect x="698.71" y="362.47" width="4.28" height="4.28" fill="#f0f0f0"/><rect x="698.71" y="369.65" width="4.28" height="4.28" fill="#f0f0f0"/><rect x="698.71" y="376.81" width="4.28" height="4.28" fill="#f0f0f0"/><rect x="698.71" y="383.98" width="4.28" height="4.28" fill="#f0f0f0"/><rect x="698.71" y="391.16" width="4.28" height="4.28" fill="#f0f0f0"/><rect x="698.71" y="398.34" width="4.28" height="4.28" fill="#f0f0f0"/><rect x="698.71" y="419.87" width="4.28" height="4.28" fill="#f0f0f0"/><rect x="698.71" y="427.05" width="4.28" height="4.28" fill="#f0f0f0"/><rect x="698.71" y="434.23" width="4.28" height="4.28" fill="#f0f0f0"/><rect x="698.71" y="441.41" width="4.28" height="4.28" fill="#f0f0f0"/><rect x="698.71" y="448.57" width="4.28" height="4.28" fill="#f0f0f0"/><rect x="698.71" y="477.28" width="4.28" height="4.28" fill="#f0f0f0"/><rect x="691.91" y="333.76" width="4.28" height="4.28" fill="#f0f0f0"/><rect x="691.91" y="340.94" width="4.28" height="4.28" fill="#f0f0f0"/><rect x="691.91" y="348.11" width="4.28" height="4.28" fill="#f0f0f0"/><rect x="691.91" y="355.29" width="4.28" height="4.28" fill="#f0f0f0"/><rect x="691.91" y="362.47" width="4.28" height="4.28" fill="#f0f0f0"/><rect x="691.91" y="369.65" width="4.28" height="4.28" fill="#f0f0f0"/><rect x="691.91" y="376.81" width="4.28" height="4.28" fill="#f0f0f0"/><rect x="691.91" y="383.98" width="4.28" height="4.28" fill="#f0f0f0"/><rect x="691.91" y="391.16" width="4.28" height="4.28" fill="#f0f0f0"/><rect x="691.91" y="398.34" width="4.28" height="4.28" fill="#f0f0f0"/><rect x="691.91" y="405.52" width="4.28" height="4.28" fill="#f0f0f0"/><rect x="691.91" y="412.7" width="4.28" height="4.28" fill="#f0f0f0"/><rect x="691.91" y="419.87" width="4.28" height="4.28" fill="#f0f0f0"/><rect x="691.91" y="427.05" width="4.28" height="4.28" fill="#f0f0f0"/><rect x="691.91" y="434.23" width="4.28" height="4.28" fill="#f0f0f0"/><rect x="691.91" y="441.41" width="4.28" height="4.28" fill="#f0f0f0"/><rect x="691.91" y="448.57" width="4.28" height="4.28" fill="#f0f0f0"/><rect x="691.91" y="455.74" width="4.28" height="4.28" fill="#f0f0f0"/><rect x="685.11" y="333.76" width="4.28" height="4.28" fill="#f0f0f0"/><rect x="685.11" y="340.94" width="4.28" height="4.28" fill="#f0f0f0"/><rect x="685.11" y="348.11" width="4.28" height="4.28" fill="#f0f0f0"/><rect x="685.11" y="355.29" width="4.28" height="4.28" fill="#f0f0f0"/><rect x="685.11" y="362.47" width="4.28" height="4.28" fill="#f0f0f0"/><rect x="685.11" y="369.65" width="4.28" height="4.28" fill="#f0f0f0"/><rect x="685.11" y="376.81" width="4.28" height="4.28" fill="#f0f0f0"/><rect x="685.11" y="383.98" width="4.28" height="4.28" fill="#f0f0f0"/><rect x="685.11" y="391.16" width="4.28" height="4.28" fill="#f0f0f0"/><rect x="685.11" y="398.34" width="4.28" height="4.28" fill="#f0f0f0"/><rect x="685.11" y="419.87" width="4.28" height="4.28" fill="#f0f0f0"/><rect x="685.11" y="427.05" width="4.28" height="4.28" fill="#f0f0f0"/><rect x="685.11" y="434.23" width="4.28" height="4.28" fill="#f0f0f0"/><rect x="685.11" y="441.41" width="4.28" height="4.28" fill="#f0f0f0"/><rect x="678.33" y="333.76" width="4.28" height="4.28" fill="#f0f0f0"/><rect x="678.33" y="340.94" width="4.28" height="4.28" fill="#f0f0f0"/><rect x="678.33" y="348.11" width="4.28" height="4.28" fill="#f0f0f0"/><rect x="678.33" y="355.29" width="4.28" height="4.28" fill="#f0f0f0"/><rect x="678.33" y="362.47" width="4.28" height="4.28" fill="#f0f0f0"/><rect x="678.33" y="369.65" width="4.28" height="4.28" fill="#f0f0f0"/><rect x="678.33" y="376.81" width="4.28" height="4.28" fill="#f0f0f0"/><rect x="678.33" y="383.98" width="4.28" height="4.28" fill="#f0f0f0"/><rect x="678.33" y="391.16" width="4.28" height="4.28" fill="#f0f0f0"/><rect x="678.33" y="398.34" width="4.28" height="4.28" fill="#f0f0f0"/><rect x="678.33" y="419.87" width="4.28" height="4.28" fill="#f0f0f0"/><rect x="678.33" y="427.05" width="4.28" height="4.28" fill="#f0f0f0"/><rect x="678.33" y="434.23" width="4.28" height="4.28" fill="#f0f0f0"/><rect x="601.78" y="315.13" width="4.28" height="4.28" fill="#f0f0f0"/><rect x="601.78" y="322.3" width="4.28" height="4.28" fill="#f0f0f0"/><rect x="601.78" y="329.48" width="4.28" height="4.28" fill="#f0f0f0"/><rect x="601.78" y="336.66" width="4.28" height="4.28" fill="#f0f0f0"/><rect x="601.78" y="343.84" width="4.28" height="4.28" fill="#f0f0f0"/><rect x="601.78" y="351.02" width="4.28" height="4.28" fill="#f0f0f0"/><rect x="601.78" y="358.18" width="4.28" height="4.28" fill="#f0f0f0"/><rect x="601.78" y="365.35" width="4.28" height="4.28" fill="#f0f0f0"/><rect x="601.78" y="386.89" width="4.28" height="4.28" fill="#f0f0f0"/><rect x="601.78" y="394.06" width="4.28" height="4.28" fill="#f0f0f0"/><rect x="594.98" y="315.13" width="4.28" height="4.28" fill="#f0f0f0"/><rect x="594.98" y="322.3" width="4.28" height="4.28" fill="#f0f0f0"/><rect x="594.98" y="329.48" width="4.28" height="4.28" fill="#f0f0f0"/><rect x="594.98" y="336.66" width="4.28" height="4.28" fill="#f0f0f0"/><rect x="594.98" y="343.84" width="4.28" height="4.28" fill="#f0f0f0"/><rect x="594.98" y="351.02" width="4.28" height="4.28" fill="#f0f0f0"/><rect x="594.98" y="358.18" width="4.28" height="4.28" fill="#f0f0f0"/><rect x="594.98" y="365.35" width="4.28" height="4.28" fill="#f0f0f0"/><rect x="594.98" y="394.06" width="4.28" height="4.28" fill="#f0f0f0"/><rect x="588.18" y="315.13" width="4.28" height="4.28" fill="#f0f0f0"/><rect x="588.18" y="322.3" width="4.28" height="4.28" fill="#f0f0f0"/><rect x="588.18" y="329.48" width="4.28" height="4.28" fill="#f0f0f0"/><rect x="588.18" y="336.66" width="4.28" height="4.28" fill="#f0f0f0"/><rect x="588.18" y="343.84" width="4.28" height="4.28" fill="#f0f0f0"/><rect x="588.18" y="351.02" width="4.28" height="4.28" fill="#f0f0f0"/><rect x="588.18" y="358.18" width="4.28" height="4.28" fill="#f0f0f0"/><rect x="588.18" y="365.35" width="4.28" height="4.28" fill="#f0f0f0"/><rect x="581.38" y="315.13" width="4.28" height="4.28" fill="#f0f0f0"/><rect x="581.38" y="322.3" width="4.28" height="4.28" fill="#f0f0f0"/><rect x="581.38" y="329.48" width="4.28" height="4.28" fill="#f0f0f0"/><rect x="581.38" y="336.66" width="4.28" height="4.28" fill="#f0f0f0"/><rect x="581.38" y="343.84" width="4.28" height="4.28" fill="#f0f0f0"/><rect x="581.38" y="351.02" width="4.28" height="4.28" fill="#f0f0f0"/><rect x="581.38" y="365.35" width="4.28" height="4.28" fill="#f0f0f0"/><rect x="581.38" y="372.53" width="4.28" height="4.28" fill="#f0f0f0"/><rect x="581.38" y="394.06" width="4.28" height="4.28" fill="#f0f0f0"/><rect x="581.38" y="401.24" width="4.28" height="4.28" fill="#f0f0f0"/><rect x="581.38" y="408.42" width="4.28" height="4.28" fill="#f0f0f0"/><rect x="581.38" y="415.6" width="4.28" height="4.28" fill="#f0f0f0"/><rect x="581.38" y="422.77" width="4.28" height="4.28" fill="#f0f0f0"/><rect x="581.38" y="429.94" width="4.28" height="4.28" fill="#f0f0f0"/><rect x="581.38" y="437.11" width="4.28" height="4.28" fill="#f0f0f0"/><rect x="574.58" y="315.13" width="4.28" height="4.28" fill="#f0f0f0"/><rect x="574.58" y="322.3" width="4.28" height="4.28" fill="#f0f0f0"/><rect x="574.58" y="329.48" width="4.28" height="4.28" fill="#f0f0f0"/><rect x="574.58" y="336.66" width="4.28" height="4.28" fill="#f0f0f0"/><rect x="574.58" y="343.84" width="4.28" height="4.28" fill="#f0f0f0"/><rect x="574.58" y="351.02" width="4.28" height="4.28" fill="#f0f0f0"/><rect x="574.58" y="372.53" width="4.28" height="4.28" fill="#f0f0f0"/><rect x="574.58" y="379.71" width="4.28" height="4.28" fill="#f0f0f0"/><rect x="574.58" y="386.89" width="4.28" height="4.28" fill="#f0f0f0"/><rect x="574.58" y="394.06" width="4.28" height="4.28" fill="#f0f0f0"/><rect x="574.58" y="401.24" width="4.28" height="4.28" fill="#f0f0f0"/><rect x="574.58" y="408.42" width="4.28" height="4.28" fill="#f0f0f0"/><rect x="574.58" y="415.6" width="4.28" height="4.28" fill="#f0f0f0"/><rect x="574.58" y="422.77" width="4.28" height="4.28" fill="#f0f0f0"/><rect x="574.58" y="429.94" width="4.28" height="4.28" fill="#f0f0f0"/><rect x="574.58" y="437.11" width="4.28" height="4.28" fill="#f0f0f0"/><rect x="574.58" y="444.29" width="4.28" height="4.28" fill="#f0f0f0"/><rect x="574.58" y="458.65" width="4.28" height="4.28" fill="#f0f0f0"/><rect x="567.78" y="315.13" width="4.28" height="4.28" fill="#f0f0f0"/><rect x="567.78" y="322.3" width="4.28" height="4.28" fill="#f0f0f0"/><rect x="567.78" y="329.48" width="4.28" height="4.28" fill="#f0f0f0"/><rect x="567.78" y="336.66" width="4.28" height="4.28" fill="#f0f0f0"/><rect x="567.78" y="343.84" width="4.28" height="4.28" fill="#f0f0f0"/><rect x="567.78" y="351.02" width="4.28" height="4.28" fill="#f0f0f0"/><rect x="567.78" y="372.53" width="4.28" height="4.28" fill="#f0f0f0"/><rect x="567.78" y="379.71" width="4.28" height="4.28" fill="#f0f0f0"/><rect x="567.78" y="386.89" width="4.28" height="4.28" fill="#f0f0f0"/><rect x="567.78" y="394.06" width="4.28" height="4.28" fill="#f0f0f0"/><rect x="567.78" y="415.6" width="4.28" height="4.28" fill="#f0f0f0"/><rect x="567.78" y="422.77" width="4.28" height="4.28" fill="#f0f0f0"/><rect x="567.78" y="429.94" width="4.28" height="4.28" fill="#f0f0f0"/><rect x="567.78" y="437.11" width="4.28" height="4.28" fill="#f0f0f0"/><rect x="567.78" y="444.29" width="4.28" height="4.28" fill="#f0f0f0"/><rect x="567.78" y="458.65" width="4.28" height="4.28" fill="#f0f0f0"/><rect x="567.78" y="465.82" width="4.28" height="4.28" fill="#f0f0f0"/><rect x="506.1" y="381.86" width="4.28" height="4.28" fill="#f0f0f0"/><rect x="506.1" y="389.03" width="4.28" height="4.28" fill="#f0f0f0"/><rect x="506.1" y="396.21" width="4.28" height="4.28" fill="#f0f0f0"/><rect x="506.1" y="403.37" width="4.28" height="4.28" fill="#f0f0f0"/><rect x="506.1" y="410.55" width="4.28" height="4.28" fill="#f0f0f0"/><rect x="506.1" y="417.73" width="4.28" height="4.28" fill="#f0f0f0"/><rect x="506.1" y="424.9" width="4.28" height="4.28" fill="#f0f0f0"/><rect x="506.1" y="446.44" width="4.28" height="4.28" fill="#f0f0f0"/><rect x="506.1" y="453.61" width="4.28" height="4.28" fill="#f0f0f0"/><rect x="506.1" y="460.79" width="4.28" height="4.28" fill="#f0f0f0"/><rect x="499.3" y="381.86" width="4.28" height="4.28" fill="#f0f0f0"/><rect x="499.3" y="389.03" width="4.28" height="4.28" fill="#f0f0f0"/><rect x="499.3" y="396.21" width="4.28" height="4.28" fill="#f0f0f0"/><rect x="499.3" y="403.37" width="4.28" height="4.28" fill="#f0f0f0"/><rect x="499.3" y="410.55" width="4.28" height="4.28" fill="#f0f0f0"/><rect x="499.3" y="417.73" width="4.28" height="4.28" fill="#f0f0f0"/><rect x="499.3" y="424.9" width="4.28" height="4.28" fill="#f0f0f0"/><rect x="492.5" y="381.86" width="4.28" height="4.28" fill="#f0f0f0"/><rect x="492.5" y="389.03" width="4.28" height="4.28" fill="#f0f0f0"/><rect x="492.5" y="396.21" width="4.28" height="4.28" fill="#f0f0f0"/><rect x="492.5" y="403.37" width="4.28" height="4.28" fill="#f0f0f0"/><rect x="492.5" y="410.55" width="4.28" height="4.28" fill="#f0f0f0"/><rect x="492.5" y="417.73" width="4.28" height="4.28" fill="#f0f0f0"/><rect x="492.5" y="424.9" width="4.28" height="4.28" fill="#f0f0f0"/><rect x="485.7" y="381.86" width="4.28" height="4.28" fill="#f0f0f0"/><rect x="485.7" y="389.03" width="4.28" height="4.28" fill="#f0f0f0"/><rect x="485.7" y="396.21" width="4.28" height="4.28" fill="#f0f0f0"/><rect x="485.7" y="403.37" width="4.28" height="4.28" fill="#f0f0f0"/><rect x="485.7" y="410.55" width="4.28" height="4.28" fill="#f0f0f0"/><rect x="485.7" y="417.73" width="4.28" height="4.28" fill="#f0f0f0"/><rect x="485.7" y="424.9" width="4.28" height="4.28" fill="#f0f0f0"/><rect x="485.7" y="432.08" width="4.28" height="4.28" fill="#f0f0f0"/><rect x="485.7" y="439.26" width="4.28" height="4.28" fill="#f0f0f0"/><rect x="485.7" y="446.44" width="4.28" height="4.28" fill="#f0f0f0"/><rect x="485.7" y="453.61" width="4.28" height="4.28" fill="#f0f0f0"/><rect x="478.9" y="381.86" width="4.28" height="4.28" fill="#f0f0f0"/><rect x="478.9" y="389.03" width="4.28" height="4.28" fill="#f0f0f0"/><rect x="478.9" y="396.21" width="4.28" height="4.28" fill="#f0f0f0"/><rect x="478.9" y="403.37" width="4.28" height="4.28" fill="#f0f0f0"/><rect x="478.9" y="410.55" width="4.28" height="4.28" fill="#f0f0f0"/><rect x="478.9" y="417.73" width="4.28" height="4.28" fill="#f0f0f0"/><rect x="478.9" y="424.9" width="4.28" height="4.28" fill="#f0f0f0"/><rect x="478.9" y="432.08" width="4.28" height="4.28" fill="#f0f0f0"/><rect x="478.9" y="439.26" width="4.28" height="4.28" fill="#f0f0f0"/><rect x="478.9" y="446.44" width="4.28" height="4.28" fill="#f0f0f0"/><rect x="478.9" y="453.61" width="4.28" height="4.28" fill="#f0f0f0"/><rect x="478.9" y="460.79" width="4.28" height="4.28" fill="#f0f0f0"/><rect x="478.9" y="482.31" width="4.28" height="4.28" fill="#f0f0f0"/><rect x="478.9" y="489.49" width="4.28" height="4.28" fill="#f0f0f0"/><rect x="472.1" y="381.86" width="4.28" height="4.28" fill="#f0f0f0"/><rect x="472.1" y="389.03" width="4.28" height="4.28" fill="#f0f0f0"/><rect x="472.1" y="396.21" width="4.28" height="4.28" fill="#f0f0f0"/><rect x="472.1" y="417.73" width="4.28" height="4.28" fill="#f0f0f0"/><rect x="472.1" y="424.9" width="4.28" height="4.28" fill="#f0f0f0"/><rect x="472.1" y="432.08" width="4.28" height="4.28" fill="#f0f0f0"/><rect x="472.1" y="439.26" width="4.28" height="4.28" fill="#f0f0f0"/><rect x="472.1" y="446.44" width="4.28" height="4.28" fill="#f0f0f0"/><rect x="472.1" y="453.61" width="4.28" height="4.28" fill="#f0f0f0"/><rect x="472.1" y="460.79" width="4.28" height="4.28" fill="#f0f0f0"/><rect x="472.1" y="482.31" width="4.28" height="4.28" fill="#f0f0f0"/><rect x="472.1" y="489.49" width="4.28" height="4.28" fill="#f0f0f0"/><rect x="472.1" y="496.66" width="4.28" height="4.28" fill="#f0f0f0"/><rect x="400.86" y="338.79" width="4.28" height="4.28" fill="#f0f0f0"/><rect x="400.86" y="345.97" width="4.28" height="4.28" fill="#f0f0f0"/><rect x="400.86" y="353.14" width="4.28" height="4.28" fill="#f0f0f0"/><rect x="400.86" y="360.32" width="4.28" height="4.28" fill="#f0f0f0"/><rect x="400.86" y="367.5" width="4.28" height="4.28" fill="#f0f0f0"/><rect x="400.86" y="374.68" width="4.28" height="4.28" fill="#f0f0f0"/><rect x="400.86" y="381.86" width="4.28" height="4.28" fill="#f0f0f0"/><rect x="400.86" y="389.03" width="4.28" height="4.28" fill="#f0f0f0"/><rect x="400.86" y="396.21" width="4.28" height="4.28" fill="#f0f0f0"/><rect x="400.86" y="403.37" width="4.28" height="4.28" fill="#f0f0f0"/><rect x="400.86" y="410.55" width="4.28" height="4.28" fill="#f0f0f0"/><rect x="400.86" y="417.73" width="4.28" height="4.28" fill="#f0f0f0"/><rect x="400.86" y="424.9" width="4.28" height="4.28" fill="#f0f0f0"/><rect x="400.86" y="432.08" width="4.28" height="4.28" fill="#f0f0f0"/><rect x="400.86" y="439.26" width="4.28" height="4.28" fill="#f0f0f0"/><rect x="400.86" y="446.44" width="4.28" height="4.28" fill="#f0f0f0"/><rect x="400.86" y="453.61" width="4.28" height="4.28" fill="#f0f0f0"/><rect x="400.86" y="460.79" width="4.28" height="4.28" fill="#f0f0f0"/><rect x="400.86" y="467.97" width="4.28" height="4.28" fill="#f0f0f0"/><rect x="400.86" y="475.13" width="4.28" height="4.28" fill="#f0f0f0"/><rect x="400.86" y="482.31" width="4.28" height="4.28" fill="#f0f0f0"/><rect x="400.86" y="489.49" width="4.28" height="4.28" fill="#f0f0f0"/><rect x="400.86" y="496.66" width="4.28" height="4.28" fill="#f0f0f0"/><rect x="394.06" y="338.79" width="4.28" height="4.28" fill="#f0f0f0"/><rect x="394.06" y="345.97" width="4.28" height="4.28" fill="#f0f0f0"/><rect x="394.06" y="353.14" width="4.28" height="4.28" fill="#f0f0f0"/><rect x="394.06" y="360.32" width="4.28" height="4.28" fill="#f0f0f0"/><rect x="394.06" y="367.5" width="4.28" height="4.28" fill="#f0f0f0"/><rect x="394.06" y="374.68" width="4.28" height="4.28" fill="#f0f0f0"/><rect x="394.06" y="381.86" width="4.28" height="4.28" fill="#f0f0f0"/><rect x="394.06" y="389.03" width="4.28" height="4.28" fill="#f0f0f0"/><rect x="394.06" y="396.21" width="4.28" height="4.28" fill="#f0f0f0"/><rect x="394.06" y="403.37" width="4.28" height="4.28" fill="#f0f0f0"/><rect x="394.06" y="410.55" width="4.28" height="4.28" fill="#f0f0f0"/><rect x="394.06" y="417.73" width="4.28" height="4.28" fill="#f0f0f0"/><rect x="394.06" y="424.9" width="4.28" height="4.28" fill="#f0f0f0"/><rect x="394.06" y="432.08" width="4.28" height="4.28" fill="#f0f0f0"/><rect x="394.06" y="439.26" width="4.28" height="4.28" fill="#f0f0f0"/><rect x="394.06" y="446.44" width="4.28" height="4.28" fill="#f0f0f0"/><rect x="394.06" y="453.61" width="4.28" height="4.28" fill="#f0f0f0"/><rect x="394.06" y="460.79" width="4.28" height="4.28" fill="#f0f0f0"/><rect x="394.06" y="467.97" width="4.28" height="4.28" fill="#f0f0f0"/><rect x="387.26" y="338.79" width="4.28" height="4.28" fill="#f0f0f0"/><rect x="387.26" y="345.97" width="4.28" height="4.28" fill="#f0f0f0"/><rect x="387.26" y="353.14" width="4.28" height="4.28" fill="#f0f0f0"/><rect x="387.26" y="360.32" width="4.28" height="4.28" fill="#f0f0f0"/><rect x="387.26" y="367.5" width="4.28" height="4.28" fill="#f0f0f0"/><rect x="387.26" y="374.68" width="4.28" height="4.28" fill="#f0f0f0"/><rect x="387.26" y="381.86" width="4.28" height="4.28" fill="#f0f0f0"/><rect x="387.26" y="389.03" width="4.28" height="4.28" fill="#f0f0f0"/><rect x="387.26" y="396.21" width="4.28" height="4.28" fill="#f0f0f0"/><rect x="387.26" y="403.37" width="4.28" height="4.28" fill="#f0f0f0"/><rect x="387.26" y="410.55" width="4.28" height="4.28" fill="#f0f0f0"/><rect x="387.26" y="417.73" width="4.28" height="4.28" fill="#f0f0f0"/><rect x="387.26" y="424.9" width="4.28" height="4.28" fill="#f0f0f0"/><rect x="387.26" y="432.08" width="4.28" height="4.28" fill="#f0f0f0"/><rect x="387.26" y="439.26" width="4.28" height="4.28" fill="#f0f0f0"/><rect x="387.26" y="446.44" width="4.28" height="4.28" fill="#f0f0f0"/><rect x="387.26" y="453.61" width="4.28" height="4.28" fill="#f0f0f0"/><rect x="387.26" y="460.79" width="4.28" height="4.28" fill="#f0f0f0"/><rect x="387.26" y="467.97" width="4.28" height="4.28" fill="#f0f0f0"/><rect x="380.46" y="338.79" width="4.28" height="4.28" fill="#f0f0f0"/><rect x="380.46" y="345.97" width="4.28" height="4.28" fill="#f0f0f0"/><rect x="380.46" y="353.14" width="4.28" height="4.28" fill="#f0f0f0"/><rect x="380.46" y="360.32" width="4.28" height="4.28" fill="#f0f0f0"/><rect x="380.46" y="367.5" width="4.28" height="4.28" fill="#f0f0f0"/><rect x="380.46" y="374.68" width="4.28" height="4.28" fill="#f0f0f0"/><rect x="380.46" y="381.86" width="4.28" height="4.28" fill="#f0f0f0"/><rect x="380.46" y="389.03" width="4.28" height="4.28" fill="#f0f0f0"/><rect x="380.46" y="396.21" width="4.28" height="4.28" fill="#f0f0f0"/><rect x="380.46" y="403.37" width="4.28" height="4.28" fill="#f0f0f0"/><rect x="380.46" y="410.55" width="4.28" height="4.28" fill="#f0f0f0"/><rect x="380.46" y="417.73" width="4.28" height="4.28" fill="#f0f0f0"/><rect x="380.46" y="424.9" width="4.28" height="4.28" fill="#f0f0f0"/><rect x="380.46" y="432.08" width="4.28" height="4.28" fill="#f0f0f0"/><rect x="380.46" y="439.26" width="4.28" height="4.28" fill="#f0f0f0"/><rect x="373.66" y="338.79" width="4.28" height="4.28" fill="#f0f0f0"/><rect x="373.66" y="345.97" width="4.28" height="4.28" fill="#f0f0f0"/><rect x="373.66" y="353.14" width="4.28" height="4.28" fill="#f0f0f0"/><rect x="373.66" y="360.32" width="4.28" height="4.28" fill="#f0f0f0"/><rect x="373.66" y="367.5" width="4.28" height="4.28" fill="#f0f0f0"/><rect x="373.66" y="374.68" width="4.28" height="4.28" fill="#f0f0f0"/><rect x="373.66" y="381.86" width="4.28" height="4.28" fill="#f0f0f0"/><rect x="373.66" y="389.03" width="4.28" height="4.28" fill="#f0f0f0"/><rect x="373.66" y="396.21" width="4.28" height="4.28" fill="#f0f0f0"/><rect x="373.66" y="403.37" width="4.28" height="4.28" fill="#f0f0f0"/><rect x="373.66" y="410.55" width="4.28" height="4.28" fill="#f0f0f0"/><rect x="373.66" y="417.73" width="4.28" height="4.28" fill="#f0f0f0"/><rect x="373.66" y="424.9" width="4.28" height="4.28" fill="#f0f0f0"/><rect x="366.86" y="338.79" width="4.28" height="4.28" fill="#f0f0f0"/><rect x="366.86" y="345.97" width="4.28" height="4.28" fill="#f0f0f0"/><rect x="366.86" y="353.14" width="4.28" height="4.28" fill="#f0f0f0"/><rect x="366.86" y="360.32" width="4.28" height="4.28" fill="#f0f0f0"/><rect x="366.86" y="367.5" width="4.28" height="4.28" fill="#f0f0f0"/><rect x="366.86" y="374.68" width="4.28" height="4.28" fill="#f0f0f0"/><rect x="366.86" y="381.86" width="4.28" height="4.28" fill="#f0f0f0"/><rect x="366.86" y="389.03" width="4.28" height="4.28" fill="#f0f0f0"/><rect x="366.86" y="396.21" width="4.28" height="4.28" fill="#f0f0f0"/><rect x="366.86" y="403.37" width="4.28" height="4.28" fill="#f0f0f0"/><rect x="366.86" y="410.55" width="4.28" height="4.28" fill="#f0f0f0"/><rect x="366.86" y="417.73" width="4.28" height="4.28" fill="#f0f0f0"/><rect x="763.67" y="336.66" width="4.28" height="4.28" fill="#f0f0f0"/><rect x="763.67" y="343.84" width="4.28" height="4.28" fill="#f0f0f0"/><rect x="763.67" y="351.02" width="4.28" height="4.28" fill="#f0f0f0"/><rect x="763.67" y="358.18" width="4.28" height="4.28" fill="#f0f0f0"/><rect x="763.67" y="365.35" width="4.28" height="4.28" fill="#f0f0f0"/><rect x="763.67" y="372.53" width="4.28" height="4.28" fill="#f0f0f0"/><rect x="763.67" y="379.71" width="4.28" height="4.28" fill="#f0f0f0"/><rect x="763.67" y="386.89" width="4.28" height="4.28" fill="#f0f0f0"/><rect x="763.67" y="394.06" width="4.28" height="4.28" fill="#f0f0f0"/><rect x="763.67" y="401.24" width="4.28" height="4.28" fill="#f0f0f0"/><rect x="763.67" y="408.42" width="4.28" height="4.28" fill="#f0f0f0"/><rect x="763.67" y="415.6" width="4.28" height="4.28" fill="#f0f0f0"/><rect x="763.67" y="422.77" width="4.28" height="4.28" fill="#f0f0f0"/><rect x="763.67" y="429.94" width="4.28" height="4.28" fill="#f0f0f0"/><rect x="763.67" y="437.11" width="4.28" height="4.28" fill="#f0f0f0"/><rect x="763.67" y="444.29" width="4.28" height="4.28" fill="#f0f0f0"/><rect x="763.67" y="451.47" width="4.28" height="4.28" fill="#f0f0f0"/><rect x="763.67" y="465.82" width="4.28" height="4.28" fill="#f0f0f0"/><rect x="763.67" y="473" width="4.28" height="4.28" fill="#f0f0f0"/><rect x="763.67" y="480.18" width="4.28" height="4.28" fill="#f0f0f0"/><rect x="763.67" y="487.36" width="4.28" height="4.28" fill="#f0f0f0"/><rect x="763.67" y="494.52" width="4.28" height="4.28" fill="#f0f0f0"/><rect x="756.87" y="336.66" width="4.28" height="4.28" fill="#f0f0f0"/><rect x="756.87" y="343.84" width="4.28" height="4.28" fill="#f0f0f0"/><rect x="756.87" y="351.02" width="4.28" height="4.28" fill="#f0f0f0"/><rect x="756.87" y="358.18" width="4.28" height="4.28" fill="#f0f0f0"/><rect x="756.87" y="365.35" width="4.28" height="4.28" fill="#f0f0f0"/><rect x="756.87" y="372.53" width="4.28" height="4.28" fill="#f0f0f0"/><rect x="756.87" y="379.71" width="4.28" height="4.28" fill="#f0f0f0"/><rect x="756.87" y="386.89" width="4.28" height="4.28" fill="#f0f0f0"/><rect x="756.87" y="394.06" width="4.28" height="4.28" fill="#f0f0f0"/><rect x="756.87" y="401.24" width="4.28" height="4.28" fill="#f0f0f0"/><rect x="756.87" y="408.42" width="4.28" height="4.28" fill="#f0f0f0"/><rect x="756.87" y="415.6" width="4.28" height="4.28" fill="#f0f0f0"/><rect x="756.87" y="422.77" width="4.28" height="4.28" fill="#f0f0f0"/><rect x="756.87" y="429.94" width="4.28" height="4.28" fill="#f0f0f0"/><rect x="756.87" y="437.11" width="4.28" height="4.28" fill="#f0f0f0"/><rect x="756.87" y="444.29" width="4.28" height="4.28" fill="#f0f0f0"/><rect x="756.87" y="487.36" width="4.28" height="4.28" fill="#f0f0f0"/><rect x="756.87" y="494.52" width="4.28" height="4.28" fill="#f0f0f0"/><rect x="750.09" y="336.66" width="4.28" height="4.28" fill="#f0f0f0"/><rect x="750.09" y="343.84" width="4.28" height="4.28" fill="#f0f0f0"/><rect x="750.09" y="351.02" width="4.28" height="4.28" fill="#f0f0f0"/><rect x="750.09" y="358.18" width="4.28" height="4.28" fill="#f0f0f0"/><rect x="750.09" y="365.35" width="4.28" height="4.28" fill="#f0f0f0"/><rect x="750.09" y="372.53" width="4.28" height="4.28" fill="#f0f0f0"/><rect x="750.09" y="379.71" width="4.28" height="4.28" fill="#f0f0f0"/><rect x="750.09" y="386.89" width="4.28" height="4.28" fill="#f0f0f0"/><rect x="750.09" y="394.06" width="4.28" height="4.28" fill="#f0f0f0"/><rect x="750.09" y="401.24" width="4.28" height="4.28" fill="#f0f0f0"/><rect x="750.09" y="408.42" width="4.28" height="4.28" fill="#f0f0f0"/><rect x="750.09" y="415.6" width="4.28" height="4.28" fill="#f0f0f0"/><rect x="750.09" y="422.77" width="4.28" height="4.28" fill="#f0f0f0"/><rect x="750.09" y="429.94" width="4.28" height="4.28" fill="#f0f0f0"/><rect x="750.09" y="437.11" width="4.28" height="4.28" fill="#f0f0f0"/><rect x="750.09" y="444.29" width="4.28" height="4.28" fill="#f0f0f0"/><rect x="750.09" y="458.65" width="4.28" height="4.28" fill="#f0f0f0"/><rect x="750.09" y="465.82" width="4.28" height="4.28" fill="#f0f0f0"/><rect x="750.09" y="473" width="4.28" height="4.28" fill="#f0f0f0"/><rect x="750.09" y="480.18" width="4.28" height="4.28" fill="#f0f0f0"/><rect x="750.09" y="494.52" width="4.28" height="4.28" fill="#f0f0f0"/><rect x="631.49" y="386.89" width="4.28" height="4.28" fill="#f0f0f0"/><rect x="631.49" y="394.06" width="4.28" height="4.28" fill="#f0f0f0"/><rect x="631.49" y="401.24" width="4.28" height="4.28" fill="#f0f0f0"/><rect x="631.49" y="408.42" width="4.28" height="4.28" fill="#f0f0f0"/><rect x="631.49" y="415.6" width="4.28" height="4.28" fill="#f0f0f0"/><rect x="631.49" y="422.77" width="4.28" height="4.28" fill="#f0f0f0"/><rect x="631.49" y="429.94" width="4.28" height="4.28" fill="#f0f0f0"/><rect x="631.49" y="437.11" width="4.28" height="4.28" fill="#f0f0f0"/><rect x="631.49" y="444.29" width="4.28" height="4.28" fill="#f0f0f0"/><rect x="631.49" y="451.47" width="4.28" height="4.28" fill="#f0f0f0"/><rect x="631.49" y="458.65" width="4.28" height="4.28" fill="#f0f0f0"/><rect x="631.49" y="465.82" width="4.28" height="4.28" fill="#f0f0f0"/><rect x="631.49" y="473" width="4.28" height="4.28" fill="#f0f0f0"/><rect x="631.49" y="487.36" width="4.28" height="4.28" fill="#f0f0f0"/><rect x="631.49" y="494.52" width="4.28" height="4.28" fill="#f0f0f0"/><rect x="631.49" y="501.69" width="4.28" height="4.28" fill="#f0f0f0"/><rect x="631.49" y="508.87" width="4.28" height="4.28" fill="#f0f0f0"/><rect x="631.49" y="523.23" width="4.28" height="4.28" fill="#f0f0f0"/><rect x="631.49" y="530.41" width="4.28" height="4.28" fill="#f0f0f0"/><rect x="631.49" y="537.58" width="4.28" height="4.28" fill="#f0f0f0"/><rect x="624.69" y="386.89" width="4.28" height="4.28" fill="#f0f0f0"/><rect x="624.69" y="394.06" width="4.28" height="4.28" fill="#f0f0f0"/><rect x="624.69" y="401.24" width="4.28" height="4.28" fill="#f0f0f0"/><rect x="624.69" y="408.42" width="4.28" height="4.28" fill="#f0f0f0"/><rect x="624.69" y="415.6" width="4.28" height="4.28" fill="#f0f0f0"/><rect x="624.69" y="422.77" width="4.28" height="4.28" fill="#f0f0f0"/><rect x="624.69" y="429.94" width="4.28" height="4.28" fill="#f0f0f0"/><rect x="624.69" y="437.11" width="4.28" height="4.28" fill="#f0f0f0"/><rect x="624.69" y="444.29" width="4.28" height="4.28" fill="#f0f0f0"/><rect x="624.69" y="451.47" width="4.28" height="4.28" fill="#f0f0f0"/><rect x="624.69" y="458.65" width="4.28" height="4.28" fill="#f0f0f0"/><rect x="624.69" y="465.82" width="4.28" height="4.28" fill="#f0f0f0"/><rect x="624.69" y="473" width="4.28" height="4.28" fill="#f0f0f0"/><rect x="624.69" y="494.52" width="4.28" height="4.28" fill="#f0f0f0"/><rect x="624.69" y="501.69" width="4.28" height="4.28" fill="#f0f0f0"/><rect x="624.69" y="516.05" width="4.28" height="4.28" fill="#f0f0f0"/><rect x="624.69" y="523.23" width="4.28" height="4.28" fill="#f0f0f0"/><rect x="624.69" y="530.41" width="4.28" height="4.28" fill="#f0f0f0"/><rect x="624.69" y="537.58" width="4.28" height="4.28" fill="#f0f0f0"/><rect x="617.89" y="386.89" width="4.28" height="4.28" fill="#f0f0f0"/><rect x="617.89" y="394.06" width="4.28" height="4.28" fill="#f0f0f0"/><rect x="617.89" y="401.24" width="4.28" height="4.28" fill="#f0f0f0"/><rect x="617.89" y="408.42" width="4.28" height="4.28" fill="#f0f0f0"/><rect x="617.89" y="415.6" width="4.28" height="4.28" fill="#f0f0f0"/><rect x="617.89" y="422.77" width="4.28" height="4.28" fill="#f0f0f0"/><rect x="617.89" y="429.94" width="4.28" height="4.28" fill="#f0f0f0"/><rect x="617.89" y="437.11" width="4.28" height="4.28" fill="#f0f0f0"/><rect x="617.89" y="444.29" width="4.28" height="4.28" fill="#f0f0f0"/><rect x="617.89" y="451.47" width="4.28" height="4.28" fill="#f0f0f0"/><rect x="617.89" y="458.65" width="4.28" height="4.28" fill="#f0f0f0"/><rect x="617.89" y="465.82" width="4.28" height="4.28" fill="#f0f0f0"/><rect x="617.89" y="473" width="4.28" height="4.28" fill="#f0f0f0"/><rect x="617.89" y="480.18" width="4.28" height="4.28" fill="#f0f0f0"/><rect x="617.89" y="494.52" width="4.28" height="4.28" fill="#f0f0f0"/><rect x="617.89" y="508.87" width="4.28" height="4.28" fill="#f0f0f0"/><rect x="617.89" y="516.05" width="4.28" height="4.28" fill="#f0f0f0"/><rect x="617.89" y="523.23" width="4.28" height="4.28" fill="#f0f0f0"/><rect x="617.89" y="530.41" width="4.28" height="4.28" fill="#f0f0f0"/><rect x="617.89" y="537.58" width="4.28" height="4.28" fill="#f0f0f0"/><rect x="659.18" y="427.81" width="4.28" height="4.28" fill="#f0f0f0"/><rect x="659.18" y="434.98" width="4.28" height="4.28" fill="#f0f0f0"/><rect x="659.18" y="442.16" width="4.28" height="4.28" fill="#f0f0f0"/><rect x="659.18" y="449.32" width="4.28" height="4.28" fill="#f0f0f0"/><rect x="659.18" y="456.5" width="4.28" height="4.28" fill="#f0f0f0"/><rect x="659.18" y="463.68" width="4.28" height="4.28" fill="#f0f0f0"/><rect x="659.18" y="485.21" width="4.28" height="4.28" fill="#f0f0f0"/><rect x="659.18" y="492.39" width="4.28" height="4.28" fill="#f0f0f0"/><rect x="659.18" y="499.57" width="4.28" height="4.28" fill="#f0f0f0"/><rect x="659.18" y="506.74" width="4.28" height="4.28" fill="#f0f0f0"/><rect x="659.18" y="513.92" width="4.28" height="4.28" fill="#f0f0f0"/><rect x="659.18" y="521.08" width="4.28" height="4.28" fill="#f0f0f0"/><rect x="659.18" y="528.26" width="4.28" height="4.28" fill="#f0f0f0"/><rect x="652.38" y="427.81" width="4.28" height="4.28" fill="#f0f0f0"/><rect x="652.38" y="434.98" width="4.28" height="4.28" fill="#f0f0f0"/><rect x="652.38" y="442.16" width="4.28" height="4.28" fill="#f0f0f0"/><rect x="652.38" y="449.32" width="4.28" height="4.28" fill="#f0f0f0"/><rect x="652.38" y="456.5" width="4.28" height="4.28" fill="#f0f0f0"/><rect x="652.38" y="463.68" width="4.28" height="4.28" fill="#f0f0f0"/><rect x="652.38" y="485.21" width="4.28" height="4.28" fill="#f0f0f0"/><rect x="652.38" y="492.39" width="4.28" height="4.28" fill="#f0f0f0"/><rect x="652.38" y="499.57" width="4.28" height="4.28" fill="#f0f0f0"/><rect x="652.38" y="506.74" width="4.28" height="4.28" fill="#f0f0f0"/><rect x="652.38" y="513.92" width="4.28" height="4.28" fill="#f0f0f0"/><rect x="652.38" y="521.08" width="4.28" height="4.28" fill="#f0f0f0"/><rect x="652.38" y="535.44" width="4.28" height="4.28" fill="#f0f0f0"/><rect x="426.53" y="396.21" width="4.28" height="4.28" fill="#f0f0f0"/><rect x="426.53" y="403.37" width="4.28" height="4.28" fill="#f0f0f0"/><rect x="426.53" y="410.55" width="4.28" height="4.28" fill="#f0f0f0"/><rect x="426.53" y="417.73" width="4.28" height="4.28" fill="#f0f0f0"/><rect x="426.53" y="424.9" width="4.28" height="4.28" fill="#f0f0f0"/><rect x="426.53" y="432.08" width="4.28" height="4.28" fill="#f0f0f0"/><rect x="426.53" y="439.26" width="4.28" height="4.28" fill="#f0f0f0"/><rect x="426.53" y="446.44" width="4.28" height="4.28" fill="#f0f0f0"/><rect x="426.53" y="453.61" width="4.28" height="4.28" fill="#f0f0f0"/><rect x="426.53" y="460.79" width="4.28" height="4.28" fill="#f0f0f0"/><rect x="426.53" y="467.97" width="4.28" height="4.28" fill="#f0f0f0"/><rect x="426.53" y="482.31" width="4.28" height="4.28" fill="#f0f0f0"/><rect x="426.53" y="489.49" width="4.28" height="4.28" fill="#f0f0f0"/><rect x="426.53" y="496.66" width="4.28" height="4.28" fill="#f0f0f0"/><rect x="426.53" y="503.84" width="4.28" height="4.28" fill="#f0f0f0"/><rect x="426.53" y="511.02" width="4.28" height="4.28" fill="#f0f0f0"/><rect x="426.53" y="518.2" width="4.28" height="4.28" fill="#f0f0f0"/><rect x="426.53" y="525.37" width="4.28" height="4.28" fill="#f0f0f0"/><rect x="426.53" y="532.55" width="4.28" height="4.28" fill="#f0f0f0"/><rect x="419.75" y="396.21" width="4.28" height="4.28" fill="#f0f0f0"/><rect x="419.75" y="403.37" width="4.28" height="4.28" fill="#f0f0f0"/><rect x="419.75" y="410.55" width="4.28" height="4.28" fill="#f0f0f0"/><rect x="419.75" y="417.73" width="4.28" height="4.28" fill="#f0f0f0"/><rect x="419.75" y="424.9" width="4.28" height="4.28" fill="#f0f0f0"/><rect x="419.75" y="432.08" width="4.28" height="4.28" fill="#f0f0f0"/><rect x="419.75" y="439.26" width="4.28" height="4.28" fill="#f0f0f0"/><rect x="419.75" y="446.44" width="4.28" height="4.28" fill="#f0f0f0"/><rect x="419.75" y="453.61" width="4.28" height="4.28" fill="#f0f0f0"/><rect x="419.75" y="460.79" width="4.28" height="4.28" fill="#f0f0f0"/><rect x="419.75" y="467.97" width="4.28" height="4.28" fill="#f0f0f0"/><rect x="419.75" y="475.13" width="4.28" height="4.28" fill="#f0f0f0"/><rect x="419.75" y="482.31" width="4.28" height="4.28" fill="#f0f0f0"/><rect x="419.75" y="489.49" width="4.28" height="4.28" fill="#f0f0f0"/><rect x="419.75" y="496.66" width="4.28" height="4.28" fill="#f0f0f0"/><rect x="419.75" y="503.84" width="4.28" height="4.28" fill="#f0f0f0"/><rect x="419.75" y="511.02" width="4.28" height="4.28" fill="#f0f0f0"/><rect x="419.75" y="518.2" width="4.28" height="4.28" fill="#f0f0f0"/><rect x="419.75" y="525.37" width="4.28" height="4.28" fill="#f0f0f0"/><rect x="419.75" y="532.55" width="4.28" height="4.28" fill="#f0f0f0"/><rect x="460.03" y="424.15" width="4.28" height="4.28" fill="#f0f0f0"/><rect x="460.03" y="431.33" width="4.28" height="4.28" fill="#f0f0f0"/><rect x="460.03" y="438.5" width="4.28" height="4.28" fill="#f0f0f0"/><rect x="460.03" y="445.68" width="4.28" height="4.28" fill="#f0f0f0"/><rect x="460.03" y="452.86" width="4.28" height="4.28" fill="#f0f0f0"/><rect x="460.03" y="460.04" width="4.28" height="4.28" fill="#f0f0f0"/><rect x="460.03" y="467.21" width="4.28" height="4.28" fill="#f0f0f0"/><rect x="460.03" y="474.38" width="4.28" height="4.28" fill="#f0f0f0"/><rect x="460.03" y="481.55" width="4.28" height="4.28" fill="#f0f0f0"/><rect x="460.03" y="488.73" width="4.28" height="4.28" fill="#f0f0f0"/><rect x="453.23" y="424.15" width="4.28" height="4.28" fill="#f0f0f0"/><rect x="453.23" y="431.33" width="4.28" height="4.28" fill="#f0f0f0"/><rect x="453.23" y="438.5" width="4.28" height="4.28" fill="#f0f0f0"/><rect x="453.23" y="445.68" width="4.28" height="4.28" fill="#f0f0f0"/><rect x="453.23" y="452.86" width="4.28" height="4.28" fill="#f0f0f0"/><rect x="453.23" y="460.04" width="4.28" height="4.28" fill="#f0f0f0"/><rect x="453.23" y="467.21" width="4.28" height="4.28" fill="#f0f0f0"/><rect x="453.23" y="474.38" width="4.28" height="4.28" fill="#f0f0f0"/><rect x="453.23" y="481.55" width="4.28" height="4.28" fill="#f0f0f0"/><rect x="490.77" y="151.83" width="7.18" height="400.23" fill="#e0e0e0"/><rect x="625.92" y="151.83" width="7.18" height="400.23" fill="#e0e0e0"/><rect x="761.06" y="151.83" width="7.18" height="400.23" fill="#e0e0e0"/><path d="M257.42,513.05h44.27a7.57,7.57,0,0,1,7.57,7.57h0v85.56H249.87V520.69a7.56,7.56,0,0,1,7.5-7.64Z" fill="#f0f0f0"/><rect x="249.87" y="525.72" width="59.4" height="6.68" fill="#e6e6e6"/><path d="M283.65,595h14.8a4.07,4.07,0,0,1,4.07,4.07v7.21h-23V599a4.07,4.07,0,0,1,4.07-4.07Z" fill="#e0e0e0"/><path d="M302.59,606.25H286.13a2.64,2.64,0,0,1-2.64-2.64h0a2.64,2.64,0,0,1,2.64-2.63h16.46a2.64,2.64,0,0,1,2.64,2.63h0a2.64,2.64,0,0,1-2.64,2.64Z" fill="#e6e6e6"/><circle cx="557.04" cy="93.69" r="40.44" transform="translate(-6.63 130.46) rotate(-13.28)" fill="#e0e0e0"/><circle cx="557.03" cy="93.64" r="34.39" fill="#f0f0f0"/><polyline points="558.66 70.07 558.66 94.11 574.58 85.1" fill="#f0f0f0"/><path d="M558.66,95.78a1.65,1.65,0,0,1-.87-.24,1.72,1.72,0,0,1-.84-1.48V70a1.72,1.72,0,0,1,3.43,0V91.16l13.36-7.56a1.72,1.72,0,0,1,1.7,3l-15.94,9A1.86,1.86,0,0,1,558.66,95.78Z" fill="#e0e0e0"/><path d="M170,488.39c-3.09-5.15-8.17-.67-8.17-.67.72-9.76-8.25-16.42-8.25-16.42s10.43,0,11.87-9.94-3.62-5.32-8.4-5.39-9.77,13.87-3.43,21.72,4.6,21.24-9.94,34.12a28.5,28.5,0,0,0-7.59,11.85c1.09-11.83,1.71-28.51-1.72-39.63-5.91-18.89,5.36-24,8.58-33.45s-8.58-17.45-8.58-17.45,11.18-5.15,5.72-10.9-16.73-5-16.73,2.57S131,435.31,131,435.31s8.73,9.08,8.73,13.74S131,464,131,464s4-8.7-4-9.06-10.54,10.16-7.26,14.88,8.72.74,8.72.74A93.22,93.22,0,0,0,131,486.86c.83,2.73.45,13.39-.24,24.49a27.65,27.65,0,0,0-7.09-10.51c-14.55-12.88-16.23-26.28-9.93-34.12S115,444.93,110.3,445s-9.87-4.56-8.41,5.38,11.88,10,11.88,10-9,6.66-8.26,16.41c0,0-5.15-4.43-8.17.67-5.52,9.09,7.28,14.72,9.42,10.31,0,0,27.12,19.19,20.61,46.82l1.51,2.25c-.19,2.24-.31,3.57-.31,3.57l2.11-.91L133.1,543a84.71,84.71,0,0,0,.62,12l6.47-9.58c-6.54-27.63,20.61-46.83,20.61-46.83C162.78,503.12,175.55,497.47,170,488.39Z" fill="#e0e0e0"/><path d="M170,488.39c-3.09-5.15-8.17-.67-8.17-.67.72-9.76-8.25-16.42-8.25-16.42s10.43,0,11.87-9.94-3.62-5.32-8.4-5.39-9.77,13.87-3.43,21.72,4.6,21.24-9.94,34.12a28.5,28.5,0,0,0-7.59,11.85c1.09-11.83,1.71-28.51-1.72-39.63-5.91-18.89,5.36-24,8.58-33.45s-8.58-17.45-8.58-17.45,11.18-5.15,5.72-10.9-16.73-5-16.73,2.57S131,435.31,131,435.31s8.73,9.08,8.73,13.74S131,464,131,464s4-8.7-4-9.06-10.54,10.16-7.26,14.88,8.72.74,8.72.74A93.22,93.22,0,0,0,131,486.86c.83,2.73.45,13.39-.24,24.49a27.65,27.65,0,0,0-7.09-10.51c-14.55-12.88-16.23-26.28-9.93-34.12S115,444.93,110.3,445s-9.87-4.56-8.41,5.38,11.88,10,11.88,10-9,6.66-8.26,16.41c0,0-5.15-4.43-8.17.67-5.52,9.09,7.28,14.72,9.42,10.31,0,0,27.12,19.19,20.61,46.82l1.51,2.25c-.19,2.24-.31,3.57-.31,3.57l2.11-.91L133.1,543a84.71,84.71,0,0,0,.62,12l6.47-9.58c-6.54-27.63,20.61-46.83,20.61-46.83C162.78,503.12,175.55,497.47,170,488.39Z" fill="#e0e0e0" opacity="0.2" style="isolation:isolate"/><polygon points="164.73 606.25 102.62 606.25 95.93 538.25 171.45 538.25 164.73 606.25" fill="#e6e6e6"/><rect x="92.6" y="530.75" width="82.15" height="15.01" fill="#f0f0f0"/><rect x="433.79" y="196.85" width="53.32" height="33.52" rx="2.37" transform="translate(-46.23 243.91) rotate(-28.31)" fill="#798bf2"/><rect x="433.79" y="196.85" width="53.32" height="33.52" rx="2.37" transform="translate(-46.23 243.91) rotate(-28.31)" fill="#fff" opacity="0.7" style="isolation:isolate"/><path d="M466.15,216.35a5.81,5.81,0,0,1-6.11,3.3l-28.33-4.18,27.83,2.75a5.45,5.45,0,0,0,5.36-2.85l13.31-25Z" opacity="0.2" style="isolation:isolate"/><path d="M498.16,188c-4.52-10.89-45-37.66-42.1-40.08s10.18,2.73,10.18,2.73-4.07-4.7,0-5,12.91,5.15,12.91,5.15-4.29-4.91,0-5.15,12.45,7.69,12.45,7.69-5.67-8.16,2.94-2.27,15.68,25.14,16.14,34.69S502.68,198.89,498.16,188Z" fill="#798bf2"/><path d="M498.16,188c-4.52-10.89-45-37.66-42.1-40.08s10.18,2.73,10.18,2.73-4.07-4.7,0-5,12.91,5.15,12.91,5.15-4.29-4.91,0-5.15,12.45,7.69,12.45,7.69-5.67-8.16,2.94-2.27,15.68,25.14,16.14,34.69S502.68,198.89,498.16,188Z" fill="#fff" opacity="0.4" style="isolation:isolate"/><path d="M480.05,189.2l-3.28,3.68a.5.5,0,0,1-.43.16.49.49,0,0,1-.42-.54l.48-4.36-5.68.44a.43.43,0,0,1-.42-.21.44.44,0,0,1,.15-.61l5.41-3.43Z" fill="#798bf2"/><path d="M480.05,189.2l-3.28,3.68a.5.5,0,0,1-.43.16.49.49,0,0,1-.42-.54l.48-4.36-5.68.44a.43.43,0,0,1-.42-.21.44.44,0,0,1,.15-.61l5.41-3.43Z" fill="#fff" opacity="0.3" style="isolation:isolate"/><path d="M535.53,179.55c3.93,13.74-4.35,29.38-19.92,29.19s-22.43-15.12-31-17.17-10.87-6.42-8.83-10.63,7.54-4.2,18.79-.56c9.48,3.05,21.44,3.29,26.34.56C529.79,176,533,161,533,161c11.31-3.33,18.8,1.82,18.8,1.82A41.4,41.4,0,0,0,535.53,179.55Z" fill="#798bf2"/><path d="M535.53,179.55c3.93,13.74-4.35,29.38-19.92,29.19s-22.43-15.12-31-17.17-10.87-6.42-8.83-10.63,7.54-4.2,18.79-.56c9.48,3.05,21.44,3.29,26.34.56C529.79,176,533,161,533,161c11.31-3.33,18.8,1.82,18.8,1.82A41.4,41.4,0,0,0,535.53,179.55Z" fill="#fff" opacity="0.5" style="isolation:isolate"/><path d="M480.82,183h0a.78.78,0,0,1,0,1.55.78.78,0,0,1,0-1.55Z" fill="#2f2e41"/><path d="M521,183.83c11.73-1,49.66-31.24,51.12-27.68s-5.73,8.84-5.73,8.84,5.77-2.4,4.74,1.55-8.93,10.66-8.93,10.66,6.06-2.54,4.94,1.61S556,188.28,556,188.28s9.48-2.92,1.24,3.43-28.75,7.14-38,4.64S509.25,184.77,521,183.83Z" fill="#798bf2"/><path d="M521,183.83c11.73-1,49.66-31.24,51.12-27.68s-5.73,8.84-5.73,8.84,5.77-2.4,4.74,1.55-8.93,10.66-8.93,10.66,6.06-2.54,4.94,1.61S556,188.28,556,188.28s9.48-2.92,1.24,3.43-28.75,7.14-38,4.64S509.25,184.77,521,183.83Z" fill="#fff" opacity="0.4" style="isolation:isolate"/><path d="M579.67,154.69a.64.64,0,0,1-.22-1.24,46.22,46.22,0,0,1,4.93-1.72.65.65,0,1,1,.38,1.24q-2.47.75-4.88,1.6a.74.74,0,0,1-.21,0Z" fill="#798bf2"/><path d="M673.05,292.93h0a.64.64,0,0,1-.49-.75.65.65,0,0,1,.75-.52,61.08,61.08,0,0,0,10.19,1,.65.65,0,0,1,0,1.29A62.76,62.76,0,0,1,673.05,292.93Zm20.61.5a.64.64,0,0,1-.54-.54.65.65,0,0,1,.54-.75,96.9,96.9,0,0,0,10.13-1.71.64.64,0,1,1,.27,1.25,87.13,87.13,0,0,1-10.3,1.72h0ZM663.28,290a.69.69,0,0,1-.31-.09,35.13,35.13,0,0,1-8.91-5.58.65.65,0,0,1,.86-1,33.58,33.58,0,0,0,8.58,5.38h0a.64.64,0,0,1,.3.85.61.61,0,0,1-.58.37Zm50-1.6a.66.66,0,0,1,.4-.82c3.25-1.08,6.47-2.34,9.6-3.71a.64.64,0,0,1,.77.29.65.65,0,0,1-.24.89c-3.18,1.39-6.46,2.66-9.72,3.75h-.2A.66.66,0,0,1,713.28,288.4Zm19.61-7.9a.66.66,0,0,1-.68-.29h0a.63.63,0,0,1,.25-.86c3-1.7,6-3.54,8.74-5.45a.64.64,0,0,1,.89.16.63.63,0,0,1-.15.89c-2.79,1.94-5.77,3.79-8.85,5.51a.55.55,0,0,1-.31,0ZM648,276.57a.66.66,0,0,1-.69-.27c-.55-1-1.06-2-1.53-3a38.51,38.51,0,0,1-2.31-6.76.64.64,0,0,1,.46-.79.66.66,0,0,1,.79.48,36,36,0,0,0,2.23,6.54c.45,1,.95,2,1.48,2.88v0a.63.63,0,0,1-.24.86.55.55,0,0,1-.31,0Zm101.83-7.93a.64.64,0,0,1-.47-.36.67.67,0,0,1,0-.91,74.05,74.05,0,0,0,7.2-7.3.62.62,0,0,1,.89,0,.65.65,0,0,1,0,.91,75.82,75.82,0,0,1-7.33,7.45.7.7,0,0,1-.41.16Zm-106.9-12h0a.65.65,0,0,1-.65-.65,60.62,60.62,0,0,1,1-10.41.67.67,0,0,1,.76-.53.64.64,0,0,1,.51.75,60,60,0,0,0-.94,10.19h0a.64.64,0,0,1-.64.64Zm3.25-20.4a.66.66,0,0,1-.43-.81c.89-3,2-6.25,3.31-9.85a.66.66,0,0,1,.83-.38h0a.64.64,0,0,1,.35.83c-1.33,3.57-2.41,6.76-3.28,9.77a.66.66,0,0,1-.62.46Zm7-19.51a.66.66,0,0,1-.34-.87c1.09-2.7,2.57-5.81,4.15-9.24v-.17a.65.65,0,0,1,1.17.55v.17c-1.56,3.35-3.06,6.51-4.16,9.25a.6.6,0,0,1-.56.36ZM662,198a.6.6,0,0,1-.21-.14h0a.64.64,0,0,1-.33-.84c1.54-3.55,2.76-6.69,3.72-9.6A.66.66,0,0,1,666,187a.65.65,0,0,1,.39.83c-1,2.93-2.21,6.11-3.76,9.7a.65.65,0,0,1-.6.38Zm6.21-19.76a.67.67,0,0,1-.53-.74,34.64,34.64,0,0,0,.43-5.38,24,24,0,0,0-.43-4.7.67.67,0,0,1,.45-.68.65.65,0,0,1,.82.42,25.86,25.86,0,0,1,.45,5,34.59,34.59,0,0,1-.45,5.57.66.66,0,0,1-.63.55Zm-4.41-19.42a.66.66,0,0,1-.55-.31,26,26,0,0,0-7.86-6.24.67.67,0,0,1-.28-.87.66.66,0,0,1,.88-.26,27.61,27.61,0,0,1,8.26,6.54.67.67,0,0,1,0,.91.64.64,0,0,1-.41.14Zm-69.25-8.49a.64.64,0,0,1-.61-.5.65.65,0,0,1,.49-.78c3.43-.69,6.87-1.28,10.3-1.72h0a.63.63,0,0,1,.71.55h0a.63.63,0,0,1-.55.71c-3.45.45-6.87,1-10.16,1.72h-.19ZM646,148.85a65.24,65.24,0,0,0-10.13-1.46h0a.64.64,0,0,1-.58-.69.66.66,0,0,1,.69-.6,68.74,68.74,0,0,1,10.3,1.5.63.63,0,0,1,.57.7.65.65,0,0,1-.71.57Zm-30.9-1.1a.64.64,0,0,1-.5-.69v0a.62.62,0,0,1,.6-.66c2.92-.21,6.51-.42,10.3-.5h0a.63.63,0,0,1,.63.63.65.65,0,0,1-.63.66c-3.76.07-7.32.29-10.3.49h0Z" fill="#798bf2"/><path d="M763.06,252.74a.67.67,0,0,1-.38-.11.61.61,0,0,1-.16-.86,44.31,44.31,0,0,0,2.24-4.53.67.67,0,0,1,.85-.34h0a.64.64,0,0,1,.33.84,43.16,43.16,0,0,1-2.32,4.67.63.63,0,0,1-.57.33Z" fill="#798bf2"/><polygon points="184.6 275.88 202.52 465.95 211.69 465.95 192.94 275.46 184.6 275.88" fill="#c2c4c6"/><polygon points="210.03 275.88 222.11 463.45 229.62 463.45 219.19 275.46 210.03 275.88" fill="#c2c4c6"/><polygon points="208.78 640.6 199.6 640.6 199.6 479.29 213.36 479.29 208.78 640.6" fill="#c2c4c6"/><polygon points="260.88 639.76 251.71 639.76 247.96 479.29 261.71 479.29 260.88 639.76" fill="#c2c4c6"/><polygon points="274.63 640.18 283.8 640.18 287.55 479.7 273.8 479.7 274.63 640.18" fill="#c2c4c6"/><polygon points="344.24 640.18 353.41 640.18 353.83 480.96 340.07 480.96 344.24 640.18" fill="#c2c4c6"/><rect x="197.94" y="460.11" width="72.94" height="21.67" fill="#2e3135"/><rect x="270.88" y="460.11" width="85.45" height="21.67" fill="#3f4347"/><polygon points="280.47 606 280.47 623.09 300.06 623.09 300.06 603.92 280.47 606" fill="#f9b499"/><path d="M279.63,638.24v-16.4l20.48-.26L323,633.66a3.93,3.93,0,0,1,2.09,3.47h0a3.93,3.93,0,0,1-3.89,3.92l-38.35.35A3.16,3.16,0,0,1,279.63,638.24Z" fill="#798bf2"/><polygon points="370.5 605.59 370.5 622.67 390.09 622.67 390.09 603.5 370.5 605.59" fill="#f9b499"/><path d="M369.67,637.82v-16.4l20.48-.26L413,633.24a3.92,3.92,0,0,1,2.09,3.47h0a3.92,3.92,0,0,1-3.89,3.92l-38.35.36A3.17,3.17,0,0,1,369.67,637.82Z" fill="#798bf2"/><polygon points="144.17 640.6 150.42 640.6 184.18 390.5 177.51 390.5 144.17 640.6" fill="#9ea0a3"/><polygon points="265.46 640.6 259.21 640.6 225.45 390.5 232.12 390.5 265.46 640.6" fill="#9ea0a3"/><rect x="161.26" y="527.64" width="85.87" height="6.67" fill="#9ea0a3"/><polygon points="471.37 640.6 477.62 640.6 511.39 390.5 504.72 390.5 471.37 640.6" fill="#9ea0a3"/><polygon points="592.67 640.6 586.41 640.6 552.65 390.5 559.32 390.5 592.67 640.6" fill="#9ea0a3"/><rect x="488.46" y="527.64" width="85.87" height="6.67" fill="#9ea0a3"/><polygon points="292.14 252.96 292.97 278.38 181.26 280.88 180.01 256.29 292.14 252.96" fill="#2e3135"/><rect x="157.09" y="382.17" width="438.08" height="13.34" rx="6.67" fill="#e1e1e2"/><path d="M268.8,613.92h52.52l8.75-115s.42-16.67-.83-24.59c0,0,21.67,14.17,26.67,16.67l-1.53,114.41s35.3,8.13,51.55,3.13l5.84-124.63s4.16-31.26-20-51.27l-44-36.94-114.14-.39s-12,45.67,12.63,71.93l24.55,24.46a9.78,9.78,0,0,1,2.87,7.36Z" fill="#2f2e41"/><path d="M329.24,474.29s1.25-15-10.42-32.1l-22.51-37.1s47.41,37.75,66.15,58.75a26.33,26.33,0,0,1,6.68,17.83l-1.61,126a107.89,107.89,0,0,1-13.15-2.32L355.91,491Z" opacity="0.2"/><path d="M299.43,258.88,255,269.21s-21.67.42-28.34,23.76l-9.8,51.48,23.55,16.88,19.33,20.81H383l-6.7-81.25s-6.26-22.63-49.4-32.36Z" fill="#798bf2"/><path d="M262.13,291.72l-2,35.76-.35,54.66H290.5S271.3,328.82,262.13,291.72Z" opacity="0.2"/><path d="M348.38,382.14h19.29s-12.17-42.07-12.59-75.42Z" opacity="0.2"/><rect x="360.5" y="261.29" width="140.05" height="96.29" rx="10.48" fill="#2f2e41"/><rect x="360.5" y="261.29" width="140.05" height="96.29" rx="10.34" opacity="0.2"/><path d="M438.19,242.27a1.91,1.91,0,0,1-.54,1.15,2,2,0,0,1-1.13.58l-13.08,1.87s4.17.83,4.17,3.33c0,0,.83,1.67-1.67,3.34a4.84,4.84,0,0,1-.42,5.42s1.07,2.68-.5,3.42l-29.51-.09s10-18.76,26.26-20.84l14-.35h.44A2,2,0,0,1,438.19,242.27Z" fill="#f9b499"/><path d="M438.19,242.27a1.91,1.91,0,0,1-.54,1.15,2,2,0,0,1-1.13.58l-13.08,1.87a20.41,20.41,0,0,0-12.51,3.33c2.92-5.83,15.84-5.83,15.84-5.83,5.89-.42,8.17-1.9,9-3.27h.44A2,2,0,0,1,438.19,242.27Z" fill="#f7a48b"/><path d="M424.27,253.37,418,259.62s-1.43,1.43-8,1.76" fill="none" stroke="#f7a48b" stroke-miterlimit="10"/><path d="M326.74,253.37v17.3a13.55,13.55,0,0,1-27.1,0V244.2l4.4-1.85Z" fill="#f9b499"/><path d="M326.74,253.37v12.31c-3.71-.17-13.63-1.85-19.8-14.66Z" fill="#f7a48b"/><ellipse cx="336.74" cy="226.49" rx="7.5" ry="10.63" fill="#798bf2"/><ellipse cx="335.91" cy="227.32" rx="5.42" ry="7.68" opacity="0.2"/><rect x="300.31" y="203.46" width="38.76" height="55.85" rx="19.38" transform="translate(-60.74 126.42) rotate(-20.47)" fill="#f9b499"/><path d="M290.37,238.6s-10.58-12.88-3-30.88a8.21,8.21,0,0,1,3.14-3.79,5.68,5.68,0,0,1,6.25-.16s0-.23.09-.61a11.76,11.76,0,0,1,13.85-9.49A51.91,51.91,0,0,0,327,194a18.89,18.89,0,0,0,2.69-.56c3.13-.86,13.41-2.65,14.11,11.12,0,0,2.45,7.25-8.57,12.59l-1.67-3.54a16.5,16.5,0,0,0-3.35-4.1s-11.41,9.64-25.59,7.14l-1.6,5Z" fill="#2f2e41"/><path d="M299,235h6a0,0,0,0,1,0,0v12.09a0,0,0,0,1,0,0h-6a6,6,0,0,1-6-6v0A6,6,0,0,1,299,235Z" fill="#f9b499"/><path d="M297.56,222.94s-2.55-21,13.1-29.27l3.55.61s-12,12.12-9.12,28.31Z" fill="#798bf2"/><ellipse cx="301.73" cy="233.16" rx="8.34" ry="11.88" fill="#3f4347"/><ellipse cx="297.56" cy="233.16" rx="8.34" ry="10.21" fill="#798bf2"/><ellipse cx="296.93" cy="232.74" rx="5.63" ry="7.29" opacity="0.2"/><ellipse cx="245.66" cy="355.08" rx="31.05" ry="30.84" fill="#798bf2"/><path d="M300.06,359.24s-71.69,39.19-80,2.5c0,0-7.09-28.34,24.17-28.34,0,0,23.76-.42,58.36,6.67L338,347.38a14.27,14.27,0,0,1,8.19,5l15.49,19a1.76,1.76,0,0,1-.5,2.64h0a1.75,1.75,0,0,1-2.06-.23L341.74,358l3.11,8.29a5.73,5.73,0,0,1-.45,5.05c-1,1.56-2.87,2.92-6.41,2.09,0,0-2.5,2.5-6.67,0,0,0-3.51,2.1-12.15,2.45a1,1,0,0,1-.74-1.8c1.6-1.52,4.12-3.41,6.64-3.16l-2.5-5.83S305.89,367.58,300.06,359.24Z" fill="#f9b499"/><path d="M330.9,352.16s9.17-.84,10.84,5.83" fill="none" stroke="#f7a48b" stroke-miterlimit="10"/><path d="M327.15,353.83l5.08,2.43a8.67,8.67,0,0,1,4.92,7.13l.84,10" fill="none" stroke="#f7a48b" stroke-miterlimit="10"/><path d="M331.32,373.42,331,366.8a7.46,7.46,0,0,0-2.77-5.52l-4-3.29" fill="none" stroke="#f7a48b" stroke-miterlimit="10"/><rect x="368" y="261.29" width="140.05" height="96.29" rx="13.87" fill="#2f2e41"/><rect x="460.95" y="270.88" width="7.09" height="21.26" rx="3.54" fill="#798bf2"/><rect x="471.79" y="270.88" width="7.09" height="21.26" rx="3.54" fill="#798bf2"/><rect x="483.04" y="270.88" width="7.09" height="21.26" rx="3.54" fill="#798bf2"/><path d="M423,309.23l15.84,68.35H390.52A2.51,2.51,0,0,0,388,380.1h0a2.51,2.51,0,0,0,2.51,2.51H461a6.1,6.1,0,0,0,6-7.33l-13.5-65.64Z" fill="#798bf2"/><polygon points="423.02 309.23 422.68 357.42 434.06 357.76 423.02 309.23" opacity="0.2"/><path d="M110.28,515.35c-10.52-21.61-29-32.71-49.66-26.59s-23.95,35.06-8.4,42.36,31-14,39.14-18.4S110.28,515.35,110.28,515.35Z" fill="#798bf2"/><path d="M120.46,573c0-2.61-.17-5.22-.26-7.83q-.27-7.8-.56-15.59c-.34-9.52-1.37-18.85-5.3-27.63a42.94,42.94,0,0,0-16.68-19.21,35.17,35.17,0,0,0-8.77-3.79,20.42,20.42,0,0,0-10.23-5.63,41.59,41.59,0,0,0-14.59-.38c-.19,0-.17.31,0,.27a34.88,34.88,0,0,1,13.79,1,28.18,28.18,0,0,1,5.56,2.15,25.17,25.17,0,0,1,3.21,2,29.63,29.63,0,0,0-12.68.12,27.63,27.63,0,0,0-4.4,1.45,13.25,13.25,0,0,0-3.44-.31,21.34,21.34,0,0,0-4.49.65A33.25,33.25,0,0,0,53.09,504c-.16,0,0,.31.15.22A32.47,32.47,0,0,1,61.55,501a29.56,29.56,0,0,1,4.29-.62,23.42,23.42,0,0,1,2.37,0,27.48,27.48,0,0,0-13.4,13.35c0,.16.16.31.24.14a25.37,25.37,0,0,1,17.09-13.69c.47-.1.94-.16,1.4-.25-.11.69-.18,1.39-.22,2.08-.15,1.05-.33,2.1-.53,3.14a53.15,53.15,0,0,1-1.68,6.33,50.69,50.69,0,0,1-2.59,6.13A29.23,29.23,0,0,1,65,523.57a.15.15,0,0,0-.05.2.16.16,0,0,0,.2,0,.16.16,0,0,0,.06-.08c1.25-2,2.7-3.75,3.84-5.78a42.91,42.91,0,0,0,2.81-6,40.17,40.17,0,0,0,1.81-6.48,35,35,0,0,0,.54-3.51,7.84,7.84,0,0,0,.15-2.16,28.7,28.7,0,0,1,7.35-.14c-.92,5.16-1.9,10.54-4.8,15-.09.14.17.29.26.13a61.35,61.35,0,0,0,3.62-7.37,28.28,28.28,0,0,0,1.81-7.68,34.27,34.27,0,0,1,12.17,4.07A40.36,40.36,0,0,1,111,521.52a67.17,67.17,0,0,1,6,25.35c.69,11,.83,22.17,1.94,33.18,0,.72,1.21,1,1.34.14A41.44,41.44,0,0,0,120.46,573Z" fill="#2f2e41"/><path d="M96.15,500.88a12.6,12.6,0,0,0-2.39-2.16c-.87-.7-1.81-1.39-2.68-2a19.83,19.83,0,0,0-6-2.77c-.18,0-.26.24,0,.27a15.8,15.8,0,0,1,5.88,2.9,25.37,25.37,0,0,1,2.55,2.05,14.63,14.63,0,0,0,2.41,2C96.06,501.22,96.26,501,96.15,500.88Z" fill="#2f2e41"/><path d="M62.6,508.72a64.2,64.2,0,0,0-4.84,6.3,40.05,40.05,0,0,0-3.62,7.12s.09.1.13,0a84.91,84.91,0,0,1,8.49-13.35C62.91,508.77,62.71,508.57,62.6,508.72Z" fill="#2f2e41"/><path d="M85.22,506.58a15.4,15.4,0,0,1-1.2,3.89A25.44,25.44,0,0,1,82,514s0,.15.11,0a14,14,0,0,0,3.35-7.41C85.51,506.47,85.23,506.4,85.22,506.58Z" fill="#2f2e41"/><path d="M119,515.87s14.89-18.71,43.7-12.08c27.3,6.32,39.84,56.39,12.31,62.39s-22.82-40.3-32.87-48.23C134.76,512.19,124.13,513.43,119,515.87Z" fill="#798bf2"/><path d="M184.8,531.15a56.62,56.62,0,0,0-5.92-4.54,26,26,0,0,0-6.31-3.15,39.57,39.57,0,0,0-3.74-4.82,37.57,37.57,0,0,0-8.7-6.92H161a43.92,43.92,0,0,1,4.59,0,25.12,25.12,0,0,1,8.85,2.21c.16,0,.29-.18.13-.25a40.81,40.81,0,0,0-8.86-2.68,25,25,0,0,0-4.49-.38,13.92,13.92,0,0,0-2.41.14h-.47a38.14,38.14,0,0,0-8.31-3,4.77,4.77,0,0,0,.8-.22,38.06,38.06,0,0,1,4.25-.71,33.46,33.46,0,0,1,8.6.13c.19,0,.22-.24,0-.25a53.69,53.69,0,0,0-8.69-.37,36.1,36.1,0,0,0-7.24.95,38.71,38.71,0,0,0-5.25-.6c-10-.44-20.94,3.31-27.17,11.55s-7.37,19.23-8.45,29.19a221.37,221.37,0,0,0-.94,41.82c0,.81,1.21.67,1.24-.11.38-11.81.8-23.54,1.92-35.39.53-5.43,1.11-10.86,2-16.3a48.19,48.19,0,0,1,4-13.43,24.52,24.52,0,0,1,9.69-10.43,32.54,32.54,0,0,1,13.74-4.24,37.43,37.43,0,0,1,12.9,1.21,8.45,8.45,0,0,0,0,2.56,14,14,0,0,0,.63,3.13,16,16,0,0,0,1.2,2.79c.52,1,1.19,1.81,1.81,2.8,0,.15.32,0,.21-.16A13.23,13.23,0,0,1,153,516a25.68,25.68,0,0,1-.35-2.91v-2.23a38.15,38.15,0,0,1,12.55,6.63,25.85,25.85,0,0,1,2,1.81,14.11,14.11,0,0,0-2.45,3,29.52,29.52,0,0,0-2.55,4.56,38.79,38.79,0,0,0-2.73,9.87c0,.18.23.24.25,0a28.76,28.76,0,0,1,3.28-9.47,38.19,38.19,0,0,1,2.55-4.2c.47-.69,1-1.38,1.5-2.05.28-.34.58-.7.86-1.1a39.19,39.19,0,0,1,8.14,11.48h0a19.57,19.57,0,0,0-3.36,4.85,44,44,0,0,0-2.68,5.74,97.15,97.15,0,0,0-3.44,11.72.14.14,0,0,0,.08.18.15.15,0,0,0,.19-.08.17.17,0,0,0,0-.1A49.2,49.2,0,0,1,171,542.18c.87-1.81,1.81-3.62,2.74-5.32a50.71,50.71,0,0,0,2.69-5,37.21,37.21,0,0,1,3.28,13.31c0,.19.29.17.27,0a46.6,46.6,0,0,0-6.44-20.42,55.29,55.29,0,0,1,5.19,2.39,29.19,29.19,0,0,1,6,4.18C184.76,531.48,184.94,531.32,184.8,531.15Z" fill="#2f2e41"/><path d="M163.72,532.2c-.85,2.85-1.94,5.6-2.72,8.46a32.75,32.75,0,0,0-1.27,8.46h.13A83,83,0,0,1,164,532.3.14.14,0,1,0,163.72,532.2Z" fill="#2f2e41"/><path d="M181.94,525.18a16.35,16.35,0,0,0-3.83-2.72,25.83,25.83,0,0,0-4.4-1.56c-.16,0-.21.22,0,.26A17.24,17.24,0,0,1,178,523a30.26,30.26,0,0,1,3.89,2.39S182,525.25,181.94,525.18Z" fill="#2f2e41"/><path d="M133.13,490.88s2.76-33.61,27.75-44.49c20.86-9.06,32.81,14.34,18.1,28.7C167,486.7,147.86,481.46,133.13,490.88Z" fill="#798bf2"/><path d="M174.31,452.89a106.53,106.53,0,0,0-11.12,5.27,81,81,0,0,0-8.62,5.72c.42-.85.78-1.81,1.2-2.57a42.78,42.78,0,0,1,2.12-3.8,36,36,0,0,1,5.43-7c.13-.1,0-.3-.2-.18a57.18,57.18,0,0,0-5.79,6.74,42.46,42.46,0,0,0-2.38,3.8,15.72,15.72,0,0,0-1.68,3.88l-.27.2a82.91,82.91,0,0,0-11.94,11.68,3.52,3.52,0,0,1,.22-1c.47-1.65,1-3.26,1.52-4.89a41.66,41.66,0,0,1,4.51-9.8.13.13,0,0,0-.05-.18.13.13,0,0,0-.18.05,77.18,77.18,0,0,0-5.24,9.57,37.17,37.17,0,0,0-1.81,5,21.48,21.48,0,0,0-.81,3.37c-1.09,1.37-2.18,2.77-3.17,4.21-10.74,15.27-16.12,33.74-17.4,52.23a154.88,154.88,0,0,0-.29,16.55,104.23,104.23,0,0,0,1.46,16.63.31.31,0,0,0,.4.18.32.32,0,0,0,.2-.27c-.11-4.86-.62-9.71-.71-14.49a142.33,142.33,0,0,1,.47-14.6,136.32,136.32,0,0,1,5.44-28.59,102.3,102.3,0,0,1,12.67-26.89c1.05-.22,2.1-.51,3.14-.76l3.74-1a38.17,38.17,0,0,0,7-2.55c.16,0,0-.33-.15-.24a22,22,0,0,1-7.06,2.45c-1.95.38-4,.63-5.94,1.08q2.72-4,5.81-7.64A43.07,43.07,0,0,0,159,474a60.71,60.71,0,0,0,7.24-2.26c2.5-1,4.87-2.21,7.34-3.24.18,0,0-.35-.11-.26A41.93,41.93,0,0,1,159,473a88,88,0,0,1-13.47,1.1c1.81-2,3.62-4,5.56-5.88a65.59,65.59,0,0,1,23-15C174.57,453.09,174.47,452.82,174.31,452.89Z" fill="#2f2e41"/><path d="M154,453a36.79,36.79,0,0,0-3.06,4.47,24.22,24.22,0,0,0-2.21,5.22h.1c.84-1.65,1.54-3.36,2.38-5a25.47,25.47,0,0,1,3-4.55C154.28,453.05,154.08,452.85,154,453Z" fill="#2f2e41"/><path d="M177.17,464.19a25.51,25.51,0,0,1-5.12,2.13,44.63,44.63,0,0,1-5.22,1.4v.14a25.38,25.38,0,0,0,5.44-1.17,47.52,47.52,0,0,0,5-2.27C177.52,464.31,177.37,464.1,177.17,464.19Z" fill="#2f2e41"/><path d="M113.79,484.83c-.14,1.47-3.78-12.2-24.9-24.32-19.28-11-42.1-39.66-23.38-57.77C80.71,388.26,120.71,420,113.79,484.83Z" fill="#798bf2"/><path d="M128.28,563.13a370.63,370.63,0,0,0-3.35-42.48,191,191,0,0,0-8.93-38c-1.57-4.45-3.37-8.82-5.3-13.13a32.23,32.23,0,0,0,0-5c-.11-2.16-.31-4.31-.51-6.45s-.4-4.29-.67-6.43-.71-4.27-.8-6.41a.13.13,0,0,0-.12-.13.13.13,0,0,0-.13.13h0a44.6,44.6,0,0,1,.74,6.81c.16,2.07.29,4.15.34,6.23s0,4.15,0,6.23v2.35q-3-6.3-6.42-12.36c1.43-8.77-.44-17.91-2.21-26.48,0-.18-.31,0-.27,0A74.65,74.65,0,0,1,102,441.55c0,3.62,0,7.25-.11,10.87-.51-.87-1-1.72-1.52-2.57q-4.11-6.74-8.78-13.13a20.65,20.65,0,0,0-.2-6.23,50,50,0,0,0-1.54-6.83q-1-3.35-2.34-6.59c-.9-2.23-2.13-4.33-3-6.56a.13.13,0,0,0-.17-.06.13.13,0,0,0-.07.17,33.47,33.47,0,0,1,2.52,6.61,59.45,59.45,0,0,1,1.72,6.58q.68,3.33,1.12,6.7c.22,1.48.35,3,.6,4.52a161.62,161.62,0,0,0-14.79-17.22c-.13-.13-.31,0-.19.2a196.64,196.64,0,0,1,21.48,29.28l.69,1.18c-1.18-.72-2.5-1.3-3.62-1.92l-6.16-3.39c-2-1.06-4-2.17-6-3.27-1-.57-2-1.16-3.08-1.69a25,25,0,0,1-3.62-2c-.15-.11-.33.13-.15.22,2,1.12,3.82,2.79,5.8,4s4,2.48,6,3.62c3.75,2.1,7.82,3.62,11.53,5.77,2.56,4.48,4.93,9.06,7.1,13.78q-3.36-2.14-6.86-4.11c-1.49-.83-3-1.66-4.51-2.46a22.76,22.76,0,0,1-4.26-2.57c-.14-.11-.32,0-.2.2a40.36,40.36,0,0,0,8.13,5.65c2.72,1.59,5.44,3.11,8.28,4.51A157.69,157.69,0,0,1,112,480c8.89,25.17,12.15,51.92,13.71,78.46.47,7.92.71,15.83.81,23.76s-.32,15.81-.3,23.73a.21.21,0,0,0,.41,0c1-7,1.13-14.17,1.43-21.23S128.41,570.32,128.28,563.13Z" fill="#2f2e41"/><path d="M89.85,449.12a101.76,101.76,0,0,1-11.22-5.81A116.71,116.71,0,0,1,68,436.55s-.13,0,0,.09a87.14,87.14,0,0,0,10.23,7.25,105.23,105.23,0,0,0,11.59,5.54C89.89,449.43,90,449.19,89.85,449.12Z" fill="#2f2e41"/><path d="M96,420.65c-.32-1.23-.7-2.42-1.12-3.62a.09.09,0,0,0,0-.12c-.27-.69-.54-1.36-.83-2a1.13,1.13,0,0,0,0-.26l-.17-.38h0l.22.69a2.62,2.62,0,0,0,.11.4,99.1,99.1,0,0,1,3.13,14.34.13.13,0,0,0,.13.13.12.12,0,0,0,.12-.13A48.43,48.43,0,0,0,96,420.65Z" fill="#2f2e41"/><polygon points="150.57 568.24 149.07 586.12 144.45 640.62 95.01 640.62 90.4 586.12 88.89 568.24 150.57 568.24" fill="#2f2e41"/><polygon points="150.57 568.24 149.07 586.12 90.4 586.12 88.89 568.24 150.57 568.24" opacity="0.2"/><rect x="84.04" y="561.07" width="71.38" height="17.15" fill="#2f2e41"/><rect x="229.24" y="164.49" width="45.05" height="25.07" rx="5.07" fill="#798bf2"/><polygon points="255.77 187.66 272.74 201 262.22 186.7 255.77 187.66" fill="#798bf2"/><path d="M261.83,177a1.47,1.47,0,0,1,1.47-1.47h0a1.48,1.48,0,1,1-1.49,1.47Z" fill="#fff"/><path d="M254.14,177a1.47,1.47,0,0,1,1.47-1.47h0a1.48,1.48,0,1,1-1.49,1.47Z" fill="#fff"/><path d="M246.45,177a1.47,1.47,0,0,1,1.47-1.47h0a1.48,1.48,0,1,1-1.49,1.47Z" fill="#fff"/><path d="M238.76,177a1.47,1.47,0,0,1,1.47-1.47h0a1.48,1.48,0,1,1-1.49,1.47Z" fill="#fff"/></svg>